<svg xmlns="http://www.w3.org/2000/svg" xmlns:xlink="http://www.w3.org/1999/xlink" width="2000" zoomAndPan="magnify" viewBox="0 0 1500 1499.999933" height="2000" preserveAspectRatio="xMidYMid meet" version="1.0"><path fill="#000000" d="M 622.539062 184.578125 C 619.074219 185.960938 618.753906 186.574219 619.863281 189.714844 C 620.417969 191.289062 621.414062 198.101562 622.070312 204.851562 C 622.730469 211.601562 623.414062 218.003906 623.59375 219.082031 C 623.914062 220.996094 623.722656 221.089844 614.398438 223.675781 C 609.160156 225.128906 604.8125 226.265625 604.734375 226.207031 C 604.65625 226.144531 603.902344 219.761719 603.054688 212.027344 C 602.152344 203.746094 601.046875 197.050781 600.371094 195.742188 C 598.722656 192.554688 596.222656 192.207031 588.757812 194.132812 C 572.757812 198.261719 564.75 205.160156 564.75 214.8125 C 564.75 223.800781 571.453125 228.582031 579.234375 225.140625 C 582.867188 223.53125 584.484375 221.417969 584.109375 218.773438 C 583.910156 217.375 583.472656 217.160156 581.203125 217.359375 C 578.941406 217.554688 578.394531 217.289062 577.640625 215.632812 C 576.292969 212.679688 576.566406 209.746094 578.4375 206.992188 C 580.449219 204.039062 583.136719 201.992188 585.863281 201.347656 C 588.40625 200.742188 588.09375 199.015625 591.378906 231.75 C 594.300781 260.882812 594.953125 265.152344 596.765625 267.15625 C 598.121094 268.65625 601.285156 268.875 605.25 267.742188 C 609.871094 266.425781 609.992188 266.214844 608.738281 261.671875 C 607.3125 256.503906 604.929688 233.242188 605.753906 232.53125 C 606.375 231.992188 622.582031 227.25 623.800781 227.25 C 624.160156 227.25 624.855469 230.90625 625.351562 235.375 C 626.929688 249.5625 629.808594 255.484375 636.03125 257.347656 C 641.703125 259.046875 650.398438 254.488281 653.710938 248.085938 L 654.804688 245.964844 L 657.214844 247.789062 C 658.539062 248.792969 661.460938 250.210938 663.703125 250.941406 C 672.007812 253.636719 684.445312 250.003906 691.945312 242.691406 L 695.855469 238.875 L 697.476562 241.375 C 702.578125 249.253906 715.738281 247.851562 722.726562 238.691406 L 725.128906 235.539062 L 727.097656 238.894531 C 729.609375 243.179688 733.835938 245.457031 739.191406 245.410156 C 744.175781 245.363281 748.171875 243.320312 752.269531 238.71875 C 755.132812 235.503906 760.5 225.609375 760.5 223.550781 C 760.5 222.574219 760.144531 222.542969 764.523438 223.875 C 766.53125 224.484375 768.519531 224.769531 768.9375 224.507812 C 769.441406 224.199219 769.53125 225.179688 769.203125 227.371094 C 768.929688 229.203125 769.085938 232.484375 769.550781 234.660156 C 772.285156 247.40625 787.632812 250.144531 796.445312 239.453125 L 798.75 236.65625 L 798.75 238.96875 C 798.75 242.011719 801.515625 246.042969 804.765625 247.734375 C 807.863281 249.347656 814.433594 249.101562 818.046875 247.230469 C 820.21875 246.109375 820.359375 246.125 820.726562 247.53125 C 821.183594 249.277344 825.445312 251.238281 829.277344 251.464844 C 831.957031 251.625 831.980469 251.597656 832.902344 247.578125 C 835.097656 238.03125 845.296875 222.820312 852.628906 218.160156 C 856.820312 215.496094 860.488281 215.425781 860.855469 217.996094 C 860.984375 218.890625 859.042969 224.859375 856.542969 231.261719 C 851.414062 244.410156 850.8125 248.777344 853.527344 253.171875 C 855.449219 256.277344 860.453125 258.753906 864.800781 258.742188 C 871.058594 258.730469 880.5 252.621094 881.710938 247.804688 C 882.539062 244.503906 880.988281 244.226562 877.835938 247.113281 C 872.003906 252.457031 865.5 252.054688 865.5 246.351562 C 865.5 244.914062 867.375 239.097656 869.667969 233.429688 C 876.109375 217.515625 875.941406 212.671875 868.832031 209.230469 C 866.128906 207.921875 864.585938 207.648438 861.746094 207.984375 C 857.753906 208.457031 851.972656 211.109375 848.4375 214.082031 C 847.183594 215.136719 845.984375 216 845.773438 216 C 845.5625 216 845.914062 214.359375 846.550781 212.359375 C 847.191406 210.355469 847.503906 207.863281 847.242188 206.824219 C 846.679688 204.582031 842.859375 202.539062 838.761719 202.292969 C 836.230469 202.140625 835.882812 202.347656 835.273438 204.375 C 834.898438 205.613281 831.851562 213.671875 828.5 222.28125 C 822.195312 238.496094 821.628906 239.382812 816.984375 240.351562 C 814.15625 240.9375 811.5 238.835938 811.5 236.007812 C 811.5 233.722656 820.351562 203.097656 821.28125 202.167969 C 822.535156 200.914062 822.074219 200.339844 819.1875 199.539062 C 814.921875 198.355469 812.722656 198.578125 809.921875 200.488281 L 807.375 202.226562 L 804.527344 199.957031 C 802.1875 198.097656 800.824219 197.636719 796.90625 197.386719 C 786.152344 196.703125 776.828125 203.359375 772.0625 215.121094 C 770.582031 218.773438 770.03125 219.40625 768.175781 219.601562 C 766.890625 219.734375 765.304688 219.253906 764.28125 218.425781 C 762.585938 217.050781 762.566406 216.886719 763.339844 209.949219 C 764.289062 201.488281 763.921875 198.660156 761.609375 196.484375 C 759.449219 194.453125 755.019531 194.296875 752.941406 196.175781 C 749.707031 199.105469 749.925781 206.945312 753.441406 213.882812 C 755.171875 217.296875 755.273438 217.976562 754.542969 221.378906 C 752.539062 230.714844 748.441406 236.25 743.535156 236.25 C 737.175781 236.25 735.488281 230.035156 737.523438 214.125 C 739.234375 200.738281 739.167969 198.296875 737.0625 196.976562 C 734.71875 195.507812 730.550781 194.898438 727.875 195.636719 C 725.960938 196.164062 725.652344 196.582031 725.820312 198.441406 C 725.929688 199.640625 725.382812 206.53125 724.609375 213.75 C 722.691406 231.617188 720.066406 237 713.265625 237 C 707.269531 237 705.589844 230.621094 707.515625 215.152344 C 709.140625 202.078125 709.109375 199.859375 707.25 198 C 706.117188 196.867188 704.75 196.5 701.6875 196.5 C 696.144531 196.5 695.226562 196.941406 695.710938 199.378906 C 695.929688 200.476562 695.558594 206.101562 694.886719 211.875 C 694.214844 217.648438 693.738281 224.875 693.828125 227.929688 C 693.980469 233.277344 693.894531 233.578125 691.515625 236.074219 C 687.933594 239.84375 681.640625 242.464844 676.125 242.488281 C 670.859375 242.511719 667.640625 241.089844 665 237.5625 C 661.359375 232.699219 661.488281 232.445312 669.429688 228.804688 C 681.71875 223.164062 687 217.667969 687 210.507812 C 687 202.460938 678.265625 198.664062 667.363281 201.96875 C 659.742188 204.28125 652.4375 211.5 649.960938 219.171875 C 648.402344 223.996094 648.414062 232.328125 649.984375 237.921875 L 651.214844 242.316406 L 649.09375 244.535156 C 646.398438 247.34375 642.585938 247.59375 640.929688 245.0625 C 640.171875 243.90625 638.980469 235.125 637.144531 217.125 C 634.417969 190.417969 633.929688 187.519531 631.75 185.109375 C 630.382812 183.601562 625.667969 183.328125 622.539062 184.578125 M 793.84375 206.148438 C 789.113281 209.03125 785.425781 214.835938 783.433594 222.527344 C 780.648438 233.273438 783.050781 239.085938 789.40625 236.988281 C 793.917969 235.5 798.660156 228.378906 802.78125 216.890625 C 805.210938 210.121094 805.226562 208.910156 802.910156 206.589844 C 800.664062 204.347656 797.082031 204.171875 793.84375 206.148438 M 667.109375 209.445312 C 664.890625 211.660156 663.546875 213.878906 662.707031 216.703125 C 661.414062 221.0625 661.09375 226.5 662.132812 226.5 C 663.621094 226.5 671.914062 220.480469 673.503906 218.246094 C 675.550781 215.367188 676.417969 209.085938 675.003906 207.378906 C 673.300781 205.328125 670.488281 206.0625 667.109375 209.445312 M 937.867188 210.558594 C 927.996094 214.078125 918.535156 222.613281 912.644531 233.308594 C 907.550781 242.558594 905.765625 248.226562 905.6875 255.375 C 905.605469 263.210938 907.867188 268.398438 913.210938 272.640625 C 915.226562 274.242188 917.144531 275.769531 917.476562 276.039062 C 917.804688 276.308594 918.535156 279.570312 919.09375 283.289062 C 919.652344 287.011719 920.652344 291.105469 921.316406 292.390625 C 923.613281 296.832031 930.21875 298.4375 933.988281 295.472656 L 935.933594 293.945312 L 932.265625 288.535156 C 930.25 285.558594 928.253906 282.214844 927.832031 281.105469 L 927.070312 279.082031 L 932.511719 279.082031 C 946.710938 279.082031 959.292969 270.015625 968.1875 253.367188 C 978.324219 234.394531 975.636719 219.21875 960.886719 212.113281 C 956.523438 210.011719 954.953125 209.667969 948.75 209.457031 C 943.328125 209.273438 940.726562 209.535156 937.863281 210.558594 M 945.175781 217.929688 C 934.5625 223.214844 919.261719 246.5 917.589844 259.910156 C 916.355469 269.78125 924.835938 275.246094 934.289062 270.667969 C 945.976562 265.011719 962.25 239.40625 962.25 226.675781 C 962.25 217.40625 954.347656 213.359375 945.175781 217.929688 M 533.53125 242.433594 C 530.257812 245.308594 527.460938 250.9375 526.773438 256.035156 L 526.28125 259.695312 L 524.929688 256.136719 C 522.390625 249.449219 519.53125 248.269531 513.238281 251.316406 C 509.675781 253.039062 509.519531 253.394531 511.042969 256.351562 C 511.617188 257.464844 514.023438 265.414062 516.394531 274.015625 C 520.585938 289.242188 520.671875 289.726562 519.507812 292.167969 C 517.820312 295.707031 514.96875 297.453125 512.628906 296.386719 C 511.636719 295.9375 510.316406 294.585938 509.699219 293.390625 C 508.003906 290.117188 498.851562 265.449219 498.292969 262.652344 C 497.882812 260.59375 497.554688 260.285156 496.214844 260.691406 C 491.636719 262.074219 487.5 266.273438 487.5 269.539062 C 487.5 270.382812 486.894531 270.558594 485.035156 270.253906 C 481.265625 269.644531 476.988281 271.167969 473.109375 274.511719 C 462.710938 283.460938 462.527344 300.050781 472.65625 314.839844 L 474.859375 318.050781 L 473.226562 321.421875 C 471.121094 325.773438 468.054688 327.515625 464.839844 326.183594 C 462.90625 325.382812 461.597656 323.222656 455.625 310.976562 L 448.667969 296.707031 L 452.75 293.78125 C 457.011719 290.730469 457.753906 288.640625 455.148438 287.011719 C 454.199219 286.414062 453.082031 286.863281 450.140625 289.023438 L 446.355469 291.800781 L 444.367188 287.839844 C 443.277344 285.660156 441.851562 283.285156 441.199219 282.5625 C 439.628906 280.820312 436.695312 280.90625 433.601562 282.792969 C 432.214844 283.640625 430.933594 284.183594 430.757812 284.007812 C 430.578125 283.828125 429.6875 282.210938 428.78125 280.40625 C 426.992188 276.871094 422.554688 273.777344 419.25 273.769531 C 414.027344 273.757812 405.488281 280.355469 402.988281 286.335938 C 401.558594 289.757812 401.613281 297.210938 403.097656 301.417969 C 403.730469 303.21875 405.953125 307.835938 408.03125 311.683594 L 411.8125 318.675781 L 409.875 319.945312 C 407.527344 321.484375 406.355469 323.5 406.9375 325.011719 C 407.695312 326.996094 409.546875 327.042969 412.046875 325.132812 L 414.484375 323.273438 L 422.207031 337.191406 C 429.121094 349.65625 429.882812 351.398438 429.484375 353.851562 C 428.972656 357.007812 426.792969 360.261719 424.945312 360.625 C 424.246094 360.761719 422.832031 360.320312 421.804688 359.648438 C 419.902344 358.402344 402.558594 332.941406 401.640625 330.050781 C 401.152344 328.515625 401.089844 328.507812 398.851562 329.800781 C 395.574219 331.695312 392.75 336.199219 393.144531 338.898438 C 393.449219 340.96875 393.300781 341.105469 390.390625 341.433594 C 382.390625 342.335938 375.765625 351.441406 375.753906 361.550781 C 375.742188 371.53125 383.832031 385.261719 392.832031 390.535156 C 396.992188 392.972656 401.867188 393.113281 406.167969 390.917969 C 411.886719 388 414 384.042969 414 376.242188 L 414 370.660156 L 416.785156 372.082031 C 420.25 373.847656 421.800781 373.84375 425.765625 372.042969 C 429.394531 370.394531 433.234375 365.558594 433.949219 361.734375 L 434.4375 359.144531 L 438.535156 366.511719 C 448.664062 384.707031 449.570312 387.707031 445.835938 390.644531 C 444.785156 391.472656 443.519531 392.296875 443.023438 392.480469 C 441.65625 392.976562 443.390625 395.484375 445.660156 396.296875 C 446.695312 396.664062 448.425781 396.742188 449.507812 396.472656 C 452.042969 395.835938 456.496094 391.917969 458.011719 388.988281 C 459.558594 385.992188 459.464844 379.9375 457.800781 375.789062 C 457.074219 373.96875 449.570312 359.972656 441.125 344.691406 C 432.679688 329.40625 425.632812 316.386719 425.46875 315.753906 C 425.179688 314.648438 430.164062 309.878906 435.546875 306.113281 L 437.96875 304.421875 L 444.257812 317.496094 C 451.179688 331.875 454.746094 336.675781 459.542969 338.078125 C 463.136719 339.128906 467.792969 338.285156 470.996094 336.003906 C 473.957031 333.894531 477.5625 328.378906 478.199219 324.984375 C 478.792969 321.835938 479.242188 321.578125 482.765625 322.34375 C 491.910156 324.328125 500.230469 316.800781 500.246094 306.527344 L 500.25 303.679688 L 503.242188 306.082031 C 505.625 307.996094 506.902344 308.476562 509.511719 308.4375 C 514.382812 308.363281 518.703125 305.828125 521.4375 301.429688 C 523.027344 298.871094 523.996094 297.945312 524.527344 298.476562 C 525.839844 299.789062 529.375 299.335938 533.273438 297.363281 C 536.933594 295.507812 537.71875 294.53125 536.273438 293.640625 C 535 292.851562 531.824219 281.546875 530.941406 274.671875 C 529.644531 264.566406 531.769531 253.558594 535.273438 252.214844 C 536.738281 251.652344 538.5 253.867188 538.5 256.269531 C 538.5 258.453125 540.253906 258.527344 543.609375 256.480469 C 546.761719 254.554688 548.355469 250.917969 547.570312 247.433594 C 546.292969 241.769531 544.328125 240 539.324219 240 C 536.984375 240 535.675781 240.550781 533.53125 242.433594 M 978.515625 251.4375 C 977.480469 253.191406 972.945312 259.265625 968.4375 264.9375 C 956.433594 280.046875 954.242188 285.496094 957.9375 291.078125 C 958.867188 292.476562 961.234375 294.421875 963.199219 295.398438 C 966.21875 296.894531 967.414062 297.089844 970.910156 296.652344 C 973.183594 296.367188 977.230469 295.035156 979.898438 293.695312 C 982.566406 292.351562 984.75 291.324219 984.75 291.410156 C 984.75 291.496094 984.242188 292.777344 983.625 294.257812 C 983.007812 295.742188 982.5 298.46875 982.5 300.324219 C 982.5 303.039062 982.960938 304.222656 984.859375 306.386719 C 988.097656 310.070312 991.101562 311.457031 996.054688 311.546875 C 999.539062 311.613281 1000.203125 311.832031 999.941406 312.839844 C 999.519531 314.460938 1003.648438 319.066406 1006.628906 320.304688 C 1008.78125 321.195312 1009.09375 321.152344 1009.820312 319.859375 C 1011.304688 317.21875 1018.832031 309.628906 1023.375 306.1875 C 1032.035156 299.625 1044.699219 295.539062 1045.984375 298.890625 C 1046.351562 299.84375 1045.832031 300.832031 1044.191406 302.296875 L 1041.882812 304.363281 L 1043.503906 305.835938 C 1047.15625 309.160156 1050.117188 309.753906 1053.730469 307.886719 C 1058.925781 305.199219 1060.820312 298.6875 1057.460938 295.046875 C 1053.066406 290.28125 1045.144531 289.789062 1035.375 293.679688 C 1034.316406 294.101562 1034.675781 293.382812 1036.609375 291.222656 C 1040.265625 287.136719 1040.777344 285.316406 1038.949219 282.847656 C 1037.3125 280.636719 1033.011719 277.5 1031.617188 277.5 C 1031.113281 277.5 1029.824219 278.765625 1028.746094 280.3125 C 1027.671875 281.859375 1021.882812 288.019531 1015.886719 294 C 1005.113281 304.742188 1004.941406 304.875 1001.636719 304.875 C 996.90625 304.875 994.730469 302.691406 995.933594 299.144531 C 996.402344 297.757812 1000.820312 291.5625 1005.753906 285.375 C 1010.683594 279.1875 1015.019531 273.28125 1015.382812 272.246094 C 1016.328125 269.5625 1015.25 267.34375 1011.976562 265.234375 C 1007.027344 262.042969 1006.035156 262.042969 1004.519531 265.246094 C 1001.609375 271.375 988.617188 283.078125 979.875 287.441406 C 974.074219 290.339844 971.625 290.664062 970.261719 288.71875 C 968.523438 286.238281 969.605469 284.257812 979.226562 272.242188 C 984.011719 266.265625 988.457031 260.273438 989.105469 258.929688 C 990.84375 255.324219 989.6875 252.835938 985.109375 250.328125 C 983.054688 249.207031 981.152344 248.277344 980.882812 248.265625 C 980.613281 248.257812 979.546875 249.683594 978.515625 251.4375 M 482.074219 277.171875 C 476.363281 280.269531 475.609375 291.175781 480.359375 301.914062 C 483.992188 310.121094 488.746094 313.140625 492.835938 309.832031 C 496.296875 307.027344 495.417969 292.851562 491.074219 281.507812 C 489.898438 278.433594 489.085938 277.414062 487.300781 276.792969 C 484.503906 275.816406 484.582031 275.8125 482.074219 277.171875 M 1091.820312 282.082031 C 1091.300781 282.953125 1080.75 292.289062 1068.375 302.828125 C 1041.492188 325.722656 1038.1875 328.832031 1037.292969 332.0625 C 1036.003906 336.726562 1038.613281 341.917969 1045.347656 348.078125 C 1049.808594 352.160156 1055.167969 354.96875 1059.90625 355.710938 C 1063.960938 356.34375 1071.15625 355.132812 1075.710938 353.046875 C 1079.648438 351.246094 1079.707031 351.242188 1082.265625 352.613281 C 1083.6875 353.375 1085.351562 354 1085.960938 354 C 1086.601562 354 1085.601562 355.496094 1083.574219 357.5625 C 1079.722656 361.488281 1077.03125 366.652344 1077.03125 370.125 C 1077.03125 375.046875 1081.578125 381.441406 1086.359375 383.25 C 1088.78125 384.164062 1097.488281 384.40625 1098.800781 383.59375 C 1099.246094 383.316406 1098.910156 384.464844 1098.054688 386.140625 C 1097.199219 387.816406 1096.5 390.058594 1096.5 391.117188 C 1096.5 396.125 1101.355469 401.898438 1106.988281 403.585938 C 1109.609375 404.371094 1110 404.773438 1110 406.671875 C 1110 408.910156 1113.734375 415.117188 1115.429688 415.6875 C 1115.949219 415.863281 1117.554688 415.066406 1119 413.914062 C 1122.5 411.125 1128.445312 408.496094 1136.523438 406.167969 C 1147.765625 402.925781 1160.25 403.839844 1160.25 407.902344 C 1160.25 409.878906 1158.726562 410.960938 1147.917969 416.652344 C 1142.578125 419.464844 1136.925781 422.925781 1135.359375 424.339844 C 1131.710938 427.636719 1130.417969 431.601562 1131.652344 435.714844 C 1133.691406 442.527344 1139.402344 446.332031 1148.25 446.785156 C 1154.273438 447.09375 1157.414062 446.117188 1157.859375 443.792969 C 1158.074219 442.6875 1157.472656 442.5 1153.742188 442.496094 C 1147.050781 442.492188 1142.359375 439.039062 1143.8125 435.191406 C 1144.542969 433.257812 1146.332031 432.089844 1157.359375 426.324219 C 1171.003906 419.195312 1174.433594 414.964844 1171.914062 408.371094 C 1169.757812 402.730469 1163.628906 399.265625 1154.425781 398.488281 L 1148.886719 398.019531 L 1152.277344 395.90625 C 1154.144531 394.746094 1156.046875 393.09375 1156.507812 392.234375 C 1157.695312 390.019531 1156.320312 386.34375 1153.15625 383.277344 L 1150.589844 380.792969 L 1148.320312 382.699219 C 1147.074219 383.75 1139.472656 388.023438 1131.433594 392.199219 C 1115.734375 400.351562 1114.632812 400.625 1110.9375 397.269531 C 1108.59375 395.144531 1108.828125 392.941406 1111.6875 390.242188 C 1114.546875 387.539062 1136.195312 373.019531 1138.898438 371.992188 C 1141.058594 371.167969 1141.207031 369.96875 1139.414062 367.867188 C 1136.800781 364.8125 1133.769531 363 1131.273438 363 C 1129.097656 363 1128.75 362.746094 1128.75 361.171875 C 1128.75 353.894531 1119.8125 346.632812 1110 345.929688 C 1106.023438 345.644531 1104.089844 345.949219 1099.5 347.589844 C 1096.40625 348.695312 1092.972656 349.777344 1091.867188 350 C 1089.824219 350.410156 1084.5 349.050781 1084.5 348.117188 C 1084.5 347.835938 1086 346.148438 1087.835938 344.371094 C 1091.898438 340.433594 1095 334.460938 1095 330.574219 C 1095 321.089844 1084.316406 314.292969 1074.046875 317.238281 C 1072.632812 317.640625 1071.382812 317.882812 1071.273438 317.769531 C 1071.160156 317.660156 1077.039062 312.519531 1084.335938 306.347656 C 1091.636719 300.175781 1098.371094 294.316406 1099.304688 293.328125 C 1102.0625 290.40625 1101.554688 287.527344 1097.613281 283.746094 C 1093.757812 280.054688 1093.136719 279.875 1091.820312 282.082031 M 412.683594 282.1875 C 409.996094 285.546875 411.320312 291.019531 417.4375 301.875 C 419.765625 306 421.785156 309.5 421.925781 309.65625 C 422.070312 309.808594 425.230469 307.503906 428.953125 304.535156 L 435.722656 299.136719 L 434.140625 296.007812 C 433.269531 294.285156 431.921875 291.976562 431.148438 290.875 L 429.738281 288.875 L 427.550781 291.0625 C 426.328125 292.289062 424.558594 293.25 423.53125 293.25 C 421.894531 293.25 421.640625 292.84375 421.199219 289.53125 C 420.394531 283.464844 415.226562 279.007812 412.683594 282.1875 M 738.375 300.519531 C 727.667969 300.84375 704.503906 302.394531 700.875 303.035156 C 698.8125 303.398438 695.269531 303.878906 693 304.101562 C 687.484375 304.648438 680.558594 305.625 672.375 307.019531 C 665.472656 308.191406 661.265625 309.082031 648.75 312.027344 C 644.832031 312.949219 640.613281 313.867188 639.375 314.070312 C 638.136719 314.273438 636.789062 314.691406 636.375 315 C 635.960938 315.308594 634.007812 315.796875 632.03125 316.082031 C 630.054688 316.367188 625.496094 317.613281 621.90625 318.84375 C 618.3125 320.078125 613.351562 321.703125 610.875 322.457031 C 608.398438 323.207031 605.023438 324.324219 603.375 324.933594 C 601.726562 325.546875 598.011719 326.800781 595.125 327.726562 C 592.238281 328.652344 588.019531 330.257812 585.75 331.292969 C 583.480469 332.328125 580.390625 333.617188 578.882812 334.152344 C 573.011719 336.25 543.542969 349.921875 539.25 352.539062 C 536.769531 354.054688 531.804688 356.933594 525.792969 360.34375 L 517.167969 365.238281 C 515.90625 365.957031 512.78125 367.9375 510.222656 369.644531 C 507.664062 371.351562 505.21875 372.75 504.785156 372.75 C 504.355469 372.75 504 373.066406 504 373.449219 C 504 373.835938 503.242188 374.390625 502.3125 374.679688 C 501.382812 374.972656 498.9375 376.621094 496.875 378.335938 C 494.8125 380.050781 492.113281 382.085938 490.875 382.855469 C 487.332031 385.058594 472.4375 396.355469 469.125 399.351562 C 467.476562 400.847656 463.761719 403.996094 460.875 406.347656 C 453.933594 412 448.980469 416.695312 436.234375 429.691406 C 430.398438 435.644531 424.273438 441.886719 422.625 443.566406 C 420.976562 445.25 418.703125 447.859375 417.574219 449.371094 C 416.449219 450.878906 414.292969 453.410156 412.78125 454.996094 C 411.273438 456.578125 408.335938 460.070312 406.253906 462.75 C 404.308594 465.261719 402.347656 467.761719 400.375 470.25 C 393.574219 478.765625 392.71875 479.902344 388.535156 486.003906 C 386.695312 488.683594 384.136719 492.394531 382.847656 494.253906 C 381.554688 496.113281 380.355469 498.050781 380.1875 498.5625 C 380.015625 499.074219 378.761719 500.929688 377.40625 502.683594 C 375.09375 505.671875 365.25 521.660156 365.25 522.429688 C 365.25 522.621094 364.339844 524.207031 363.230469 525.953125 C 362.117188 527.699219 358.742188 533.988281 355.726562 539.925781 C 352.710938 545.867188 349.949219 551.101562 349.59375 551.550781 C 349.238281 552.003906 348.515625 553.710938 347.988281 555.347656 C 347.460938 556.980469 345.441406 561.71875 343.5 565.875 C 341.558594 570.03125 339.542969 574.769531 339.015625 576.402344 C 338.492188 578.039062 337.261719 581.15625 336.28125 583.335938 C 335.300781 585.511719 334.5 587.613281 334.5 588.003906 C 334.5 588.394531 333.351562 591.84375 331.949219 595.671875 C 327.207031 608.59375 325.6875 613.75 319.386719 638.25 C 317.738281 644.652344 315.117188 657.0625 314.234375 662.625 C 313.90625 664.6875 313.265625 668.570312 312.808594 671.25 C 312.027344 675.816406 311.351562 680.882812 309.714844 694.5 C 308.074219 708.128906 307.261719 725.6875 307.332031 745.875 C 307.429688 773.398438 308.632812 789.492188 312.65625 817.125 C 313.453125 822.601562 317.011719 840.875 317.984375 844.5 C 318.371094 845.945312 319.230469 849.320312 319.890625 852 C 324.335938 870.050781 329.566406 887.734375 332.125 893.347656 C 332.957031 895.179688 333.859375 897.679688 334.128906 898.902344 C 334.683594 901.4375 335.261719 902.976562 338.464844 910.5 C 339.082031 911.945312 339.832031 913.953125 340.140625 914.960938 C 340.878906 917.40625 353.070312 943.234375 356.617188 949.875 C 359.308594 954.914062 365.304688 965.402344 368.777344 971.144531 C 369.683594 972.644531 370.667969 974.351562 370.964844 974.929688 C 372.414062 977.78125 376.527344 984.121094 379.707031 988.394531 C 381.65625 991.019531 383.25 993.425781 383.25 993.742188 C 383.25 994.058594 385.191406 996.886719 387.5625 1000.023438 C 389.933594 1003.160156 394.40625 1009.183594 397.5 1013.40625 C 402.902344 1020.785156 405.179688 1023.554688 414.597656 1034.222656 C 428.1875 1049.617188 454.984375 1076.164062 463.269531 1082.4375 C 464.429688 1083.3125 467.117188 1085.570312 469.25 1087.453125 C 474.65625 1092.226562 480.871094 1097.054688 487.734375 1101.8125 C 491.371094 1104.335938 494.996094 1106.878906 498.609375 1109.433594 C 506.75 1115.210938 518.34375 1122.808594 522.375 1125 C 524.4375 1126.125 530.148438 1129.453125 535.070312 1132.394531 C 539.988281 1135.339844 544.5625 1137.75 545.230469 1137.75 C 545.902344 1137.75 546.769531 1138.046875 547.164062 1138.40625 C 547.554688 1138.765625 551.25 1140.84375 555.375 1143.023438 C 559.5 1145.203125 563.71875 1147.433594 564.75 1147.988281 C 565.78125 1148.539062 567.167969 1148.992188 567.832031 1148.996094 C 568.496094 1148.996094 571.027344 1150.007812 573.457031 1151.238281 C 575.886719 1152.472656 578.117188 1153.484375 578.414062 1153.488281 C 578.710938 1153.496094 580.90625 1154.390625 583.289062 1155.484375 C 594.789062 1160.746094 623.851562 1170.5625 635.25 1173.035156 C 637.519531 1173.53125 641.0625 1174.386719 643.125 1174.9375 C 647.9375 1176.230469 658.066406 1178.554688 665.25 1180.011719 C 681.140625 1183.234375 684.070312 1183.679688 696 1184.703125 C 697.855469 1184.859375 701.398438 1185.316406 703.875 1185.714844 C 719.859375 1188.296875 768.359375 1188.515625 789.375 1186.101562 C 794.738281 1185.488281 802.835938 1184.613281 807.375 1184.160156 C 816.464844 1183.253906 848.089844 1177.183594 859.875 1174.082031 C 864 1172.996094 868.554688 1171.839844 870 1171.515625 C 873.308594 1170.765625 880.515625 1168.539062 882 1167.804688 C 882.617188 1167.5 887.128906 1165.972656 892.023438 1164.410156 C 896.917969 1162.851562 901.808594 1161.109375 902.898438 1160.539062 C 903.984375 1159.972656 905.300781 1159.507812 905.824219 1159.503906 C 906.34375 1159.503906 907.355469 1159.167969 908.074219 1158.761719 C 908.789062 1158.355469 912.75 1156.632812 916.875 1154.933594 C 931.734375 1148.808594 938.410156 1145.730469 954.328125 1137.671875 C 959.957031 1134.820312 972.015625 1127.832031 972.414062 1127.1875 C 972.632812 1126.832031 974.234375 1125.871094 975.96875 1125.050781 C 977.703125 1124.230469 980.378906 1122.785156 981.910156 1121.84375 C 983.4375 1120.898438 987.140625 1118.640625 990.132812 1116.828125 C 993.128906 1115.011719 999.128906 1110.902344 1003.476562 1107.691406 C 1008.8125 1103.757812 1014.171875 1099.859375 1019.554688 1095.988281 C 1024.054688 1092.765625 1028.949219 1088.933594 1030.429688 1087.480469 C 1031.910156 1086.023438 1034.464844 1083.84375 1036.097656 1082.632812 C 1037.734375 1081.421875 1040.292969 1079.207031 1041.785156 1077.714844 C 1043.277344 1076.222656 1046.664062 1073.144531 1049.3125 1070.875 C 1059.148438 1062.441406 1079.292969 1041.554688 1090.875 1027.777344 C 1099.511719 1017.507812 1103.957031 1011.742188 1110.632812 1002.140625 C 1112.839844 998.96875 1114.894531 996.207031 1115.199219 996 C 1116.183594 995.335938 1133.25 968.800781 1133.25 967.929688 C 1133.25 967.769531 1135.191406 964.316406 1137.566406 960.257812 C 1145.757812 946.253906 1156.222656 924.136719 1163.585938 905.25 L 1167.535156 895.125 C 1168.179688 893.476562 1169.304688 890.761719 1170.035156 889.09375 C 1170.761719 887.425781 1171.601562 884.46875 1171.890625 882.519531 C 1172.183594 880.574219 1172.671875 878.828125 1172.972656 878.640625 C 1173.277344 878.453125 1174.449219 874.996094 1175.582031 870.960938 C 1176.714844 866.925781 1178.332031 861.601562 1179.179688 859.125 C 1180.027344 856.648438 1180.820312 852.769531 1180.9375 850.5 C 1181.058594 848.230469 1180.988281 847.050781 1180.777344 847.875 C 1180.570312 848.699219 1179.914062 850.4375 1179.324219 851.738281 C 1178.734375 853.039062 1178.25 854.476562 1178.25 854.9375 C 1178.25 855.394531 1177.941406 856.355469 1177.566406 857.074219 C 1177.191406 857.789062 1176.300781 860.0625 1175.589844 862.125 C 1174.878906 864.1875 1173.863281 866.382812 1173.335938 867 C 1172.808594 867.617188 1172.136719 869.476562 1171.84375 871.125 C 1171.550781 872.773438 1170.929688 874.632812 1170.46875 875.25 C 1168.914062 877.324219 1167.75 879.71875 1167.75 880.839844 C 1167.75 881.449219 1166.105469 885.253906 1164.097656 889.289062 C 1162.085938 893.324219 1157.953125 901.65625 1154.910156 907.808594 C 1146.644531 924.507812 1137.664062 939.480469 1122.261719 962.25 C 1121.566406 963.28125 1119.796875 965.921875 1118.335938 968.117188 C 1116.875 970.3125 1115.292969 972.335938 1114.824219 972.617188 C 1114.351562 972.894531 1113.074219 974.476562 1111.980469 976.125 C 1109.226562 980.28125 1103.667969 987.242188 1092.960938 999.933594 C 1083.898438 1010.679688 1060.902344 1033.332031 1050.75 1041.511719 C 1049.304688 1042.671875 1048.011719 1043.882812 1047.871094 1044.195312 C 1047.734375 1044.511719 1046.046875 1045.851562 1044.121094 1047.171875 C 1042.199219 1048.496094 1039.746094 1050.359375 1038.675781 1051.3125 C 1035.976562 1053.710938 1027.339844 1059.75 1026.605469 1059.75 C 1026.269531 1059.75 1026 1053.714844 1026 1046.339844 C 1026 1036.441406 1026.277344 1032.273438 1027.066406 1030.402344 C 1027.652344 1029.011719 1030.570312 1025.511719 1033.546875 1022.625 C 1039.707031 1016.652344 1043.644531 1011.726562 1048.5 1003.910156 C 1050.359375 1000.921875 1052.296875 997.96875 1052.816406 997.347656 C 1054.5 995.316406 1060.539062 982.976562 1062 978.585938 C 1062.78125 976.226562 1063.820312 973.550781 1064.308594 972.640625 C 1064.796875 971.730469 1065.660156 968.933594 1066.230469 966.429688 C 1066.800781 963.925781 1067.558594 961.199219 1067.914062 960.375 C 1068.964844 957.945312 1071.660156 942.84375 1072.128906 936.75 C 1072.367188 933.65625 1072.730469 929.4375 1072.941406 927.375 C 1073.148438 925.3125 1073.488281 921.769531 1073.699219 919.5 C 1073.910156 917.230469 1074.226562 914.941406 1074.402344 914.410156 C 1074.578125 913.882812 1074.742188 891.160156 1074.765625 863.917969 C 1074.808594 816.226562 1074.984375 810 1076.28125 810 C 1076.609375 810 1078.253906 811.324219 1079.941406 812.941406 C 1083.644531 816.5 1087.15625 817.804688 1093.125 817.832031 C 1098.378906 817.855469 1106.25 816.125 1106.25 814.941406 C 1106.253906 814.492188 1107.277344 814.089844 1108.527344 814.042969 C 1109.777344 814 1111.570312 813.238281 1112.511719 812.355469 C 1113.453125 811.472656 1114.625 810.75 1115.121094 810.75 C 1116.289062 810.75 1118.988281 806.316406 1119.007812 804.375 C 1119.023438 802.714844 1120.496094 798.238281 1121.589844 796.523438 C 1123.007812 794.296875 1121.933594 781.25 1120.175781 779.304688 C 1119.472656 778.53125 1118.976562 777.441406 1119.074219 776.886719 C 1119.3125 775.464844 1118.332031 772.230469 1116.667969 768.964844 C 1115.886719 767.433594 1115.242188 765.664062 1115.234375 765.03125 C 1115.222656 764.394531 1114.558594 763.03125 1113.75 762 C 1112.941406 760.96875 1112.277344 759.570312 1112.265625 758.894531 C 1112.257812 758.214844 1111.777344 757.480469 1111.199219 757.257812 C 1110.621094 757.035156 1109.90625 755.394531 1109.609375 753.613281 C 1109.308594 751.832031 1108.710938 750.148438 1108.277344 749.875 C 1107.839844 749.597656 1107.382812 748.691406 1107.253906 747.855469 C 1107.125 747.019531 1106.511719 744.882812 1105.890625 743.105469 C 1105.269531 741.328125 1104.539062 737.605469 1104.273438 734.828125 C 1103.707031 728.957031 1104.457031 727.5 1108.050781 727.5 C 1111.746094 727.5 1113.371094 725.859375 1114.484375 720.988281 C 1115.582031 716.195312 1116.921875 714.582031 1119.308594 715.167969 C 1122.128906 715.859375 1136.515625 714.144531 1141.5 712.519531 C 1146.925781 710.75 1150.042969 709.316406 1154.769531 706.421875 C 1165.738281 699.6875 1177.492188 683.207031 1177.503906 674.53125 C 1177.507812 672.519531 1178.011719 669.910156 1178.628906 668.726562 C 1179.246094 667.546875 1179.75 665.804688 1179.75 664.855469 C 1179.75 662.320312 1175.59375 661.867188 1166.546875 663.40625 C 1158.644531 664.753906 1155.75 665.601562 1155.75 666.570312 C 1155.75 666.902344 1154.164062 667.242188 1152.230469 667.328125 C 1148.171875 667.503906 1143.75 668.796875 1143.75 669.808594 C 1143.75 670.1875 1143.25 670.5 1142.636719 670.5 C 1142.023438 670.5 1139.433594 671.511719 1136.878906 672.75 C 1134.324219 673.988281 1131.828125 675 1131.332031 675 C 1130.839844 675 1130.011719 675.507812 1129.5 676.125 C 1128.984375 676.742188 1127.804688 677.25 1126.871094 677.25 C 1125.867188 677.25 1125.03125 677.800781 1124.820312 678.605469 C 1124.554688 679.628906 1123.566406 680.023438 1120.796875 680.21875 C 1114.832031 680.644531 1108.214844 679.816406 1108.886719 678.730469 C 1109.09375 678.394531 1108.753906 677.613281 1108.132812 676.988281 C 1107.507812 676.367188 1107 675.578125 1107 675.242188 C 1107 674.902344 1105.648438 673.316406 1104 671.714844 C 1102.351562 670.117188 1101 668.511719 1101 668.152344 C 1101 667.792969 1100.449219 667.5 1099.773438 667.5 C 1098.515625 667.5 1095 664.195312 1095 663.011719 C 1095 662.648438 1094.242188 662.109375 1093.316406 661.816406 C 1091.308594 661.179688 1089.808594 659.375 1089.773438 657.5625 C 1089.757812 656.695312 1089.113281 656.21875 1087.875 656.15625 C 1084.746094 656 1084.46875 655.910156 1083.824219 654.867188 C 1083.304688 654.027344 1082.921875 654.027344 1081.503906 654.867188 C 1080.144531 655.671875 1079.734375 655.683594 1079.460938 654.925781 C 1078.464844 652.171875 1074.539062 651.058594 1067.8125 651.621094 C 1067.089844 651.683594 1066.5 651.398438 1066.5 650.992188 C 1066.5 650.007812 1048.753906 650.027344 1042.875 651.015625 C 1040.398438 651.429688 1036.726562 651.945312 1034.707031 652.15625 C 1030.40625 652.609375 1029.507812 653.039062 1030.035156 654.410156 C 1030.398438 655.359375 1029.195312 655.683594 1022.042969 656.558594 C 1019.992188 656.8125 1018.160156 659.988281 1018.410156 662.871094 C 1018.558594 664.578125 1018.355469 665.25 1017.800781 664.90625 C 1017.347656 664.625 1017.148438 664.113281 1017.363281 663.769531 C 1017.578125 663.421875 1017.078125 663.316406 1016.25 663.53125 C 1015.425781 663.75 1014.75 664.214844 1014.75 664.570312 C 1014.75 664.929688 1013.0625 666.886719 1011 668.929688 C 1008.9375 670.96875 1007.25 673.148438 1007.25 673.765625 C 1007.25 674.386719 1006.71875 675.421875 1006.070312 676.070312 C 1005 677.144531 1005.003906 677.25 1006.132812 677.25 C 1007.617188 677.25 1007.214844 679.0625 1005.6875 679.265625 C 1005.101562 679.34375 1002.683594 679.621094 1000.3125 679.882812 C 997.207031 680.226562 996 680.671875 996 681.472656 C 996 682.085938 995.644531 682.367188 995.210938 682.101562 C 994.453125 681.632812 989.34375 680.828125 987 680.808594 C 986.382812 680.804688 985.367188 680.371094 984.75 679.84375 C 982.566406 677.988281 976.253906 675 974.511719 675 C 973.542969 675 972.75 674.6875 972.75 674.304688 C 972.75 673.621094 968.601562 671.25 967.40625 671.25 C 967.066406 671.25 965.011719 670.4375 962.832031 669.441406 C 958.964844 667.675781 955.972656 666.804688 952.800781 666.515625 C 951.9375 666.4375 950.757812 665.996094 950.175781 665.53125 C 949.210938 664.757812 946.890625 664.363281 937.5 663.367188 C 935.644531 663.171875 933.382812 662.835938 932.480469 662.625 C 930.308594 662.121094 927.144531 663.613281 926.570312 665.417969 C 926.320312 666.210938 926.460938 667.765625 926.890625 668.867188 C 927.316406 669.972656 928.058594 672.898438 928.542969 675.375 C 929.613281 680.839844 931.214844 684.125 936.46875 691.609375 C 943.808594 702.070312 951.703125 707.859375 964.847656 712.417969 C 970.375 714.335938 972.730469 714.75 978.109375 714.75 C 981.707031 714.75 985.539062 715.085938 986.625 715.5 L 988.601562 716.25 L 987.183594 718.3125 C 986.40625 719.449219 985.183594 721.640625 984.472656 723.1875 C 983.761719 724.734375 982.863281 726 982.480469 726 C 982.09375 726 981.570312 726.929688 981.316406 728.0625 C 980.445312 731.976562 978.507812 736.878906 977.503906 737.707031 C 976.953125 738.167969 976.5 739.027344 976.5 739.621094 C 976.5 740.214844 976.199219 741.019531 975.828125 741.414062 C 975.460938 741.804688 974.304688 744.523438 973.261719 747.449219 C 971.886719 751.304688 971.476562 753.636719 971.78125 755.886719 C 972.09375 758.234375 971.941406 759.003906 971.160156 759.011719 C 970.316406 759.019531 970.324219 759.148438 971.210938 759.710938 C 972.0625 760.25 971.859375 760.507812 970.265625 760.90625 C 967.898438 761.5 967.183594 763.515625 967.683594 768.179688 C 967.9375 770.578125 967.675781 771.761719 966.632812 772.925781 C 965.761719 773.902344 965.132812 775.992188 964.941406 778.550781 C 964.777344 780.792969 963.933594 784.257812 963.070312 786.25 C 962.207031 788.242188 961.5 791.179688 961.5 792.773438 C 961.5 794.625 961.074219 795.914062 960.328125 796.332031 C 959.683594 796.691406 959.058594 797.46875 958.941406 798.054688 C 958.117188 802.167969 955.59375 806.746094 952.128906 810.410156 C 950.269531 812.378906 948.75 814.425781 948.75 814.957031 C 948.75 815.492188 948.160156 816.257812 947.4375 816.664062 C 946.191406 817.363281 946.191406 817.425781 947.433594 817.902344 C 949.132812 818.558594 948.382812 819.75 946.269531 819.753906 C 943.964844 819.757812 940.371094 822.105469 935.902344 826.523438 C 931.769531 830.617188 927.402344 833.15625 925.3125 832.6875 C 924.570312 832.519531 924 832.824219 924 833.390625 C 924 834.679688 921.996094 835.914062 918.75 836.625 C 915.25 837.394531 913.5 838.59375 913.5 840.226562 C 913.5 840.976562 913.15625 841.375 912.738281 841.117188 C 912.527344 840.984375 912.394531 840.796875 912.339844 840.554688 C 912.285156 840.3125 912.320312 840.085938 912.453125 839.875 C 912.746094 839.402344 912.308594 839.433594 911.339844 839.953125 C 910.464844 840.421875 909.75 840.613281 909.75 840.382812 C 909.75 840.152344 908.789062 840.457031 907.613281 841.066406 C 906.441406 841.671875 904.699219 841.964844 903.746094 841.71875 C 902.539062 841.402344 902.179688 841.527344 902.554688 842.136719 C 902.851562 842.617188 902.652344 843.148438 902.109375 843.320312 C 901.269531 843.585938 890.628906 844.324219 880.125 844.851562 C 878.476562 844.933594 876.28125 845.097656 875.25 845.214844 C 873.449219 845.417969 873.464844 845.449219 875.625 846 C 877.777344 846.546875 877.738281 846.578125 874.8125 846.660156 C 872.878906 846.71875 871.703125 846.40625 871.617188 845.8125 C 871.546875 845.296875 871.148438 841.667969 870.734375 837.75 C 866.238281 795.207031 859.03125 762.078125 846.746094 727.5 C 844.621094 721.519531 842.414062 715.273438 841.847656 713.625 C 840.769531 710.496094 837.546875 701.695312 836.765625 699.75 C 836.515625 699.132812 835.082031 694.476562 833.570312 689.402344 C 831.179688 681.363281 830.886719 679.535156 831.277344 675.152344 C 831.523438 672.386719 831.917969 664.386719 832.152344 657.375 C 832.386719 650.363281 832.71875 643.945312 832.886719 643.109375 C 833.335938 640.894531 837.585938 639.953125 853.125 638.636719 C 878.835938 636.460938 891.679688 634.070312 898.445312 630.191406 C 910.128906 623.503906 917.371094 614.238281 920.863281 601.5 C 922.363281 596.042969 922.929688 583.480469 921.710938 582.726562 C 920.828125 582.179688 916.804688 582.949219 913.875 584.222656 C 909.289062 586.21875 905.878906 586.726562 893.625 587.234375 C 877.90625 587.886719 872.84375 588.960938 863.183594 593.699219 C 859.480469 595.515625 855.859375 597 855.144531 597 C 854.425781 597 851.148438 595.4375 847.855469 593.527344 C 844.566406 591.617188 840.609375 589.414062 839.0625 588.632812 C 834.792969 586.480469 834.964844 585.433594 842.492188 567.460938 C 844.375 562.972656 847.078125 557.402344 848.5 555.085938 C 849.921875 552.769531 851.839844 549.527344 852.757812 547.875 C 855.128906 543.613281 864.265625 532.3125 867.578125 529.539062 C 871.949219 525.882812 871.964844 525.871094 876.65625 523.121094 C 888.109375 516.40625 903.058594 516.582031 924.75 523.6875 C 930.320312 525.511719 936.644531 527.429688 938.804688 527.945312 C 944.246094 529.246094 957.871094 529.105469 963.265625 527.691406 C 971.894531 525.433594 981.125 519.039062 986.542969 511.574219 C 993.875 501.46875 996 494.34375 996 479.894531 C 996 470.554688 995.800781 469.027344 993.777344 462.832031 C 992.554688 459.089844 990.988281 454.925781 990.292969 453.578125 C 985.964844 445.15625 975.125 432.8125 964.875 424.632812 C 961.988281 422.328125 951.425781 412.242188 941.40625 402.222656 C 931.386719 392.199219 922.699219 384 922.09375 384 C 920.078125 384 920.414062 384.808594 926.003906 393.503906 C 927.378906 395.636719 928.5 397.585938 928.5 397.839844 C 928.5 398.09375 930.1875 400.777344 932.25 403.804688 C 934.3125 406.832031 936 409.503906 936 409.746094 C 936 410.261719 938.546875 414.050781 941.386719 417.753906 C 944.6875 422.066406 953.164062 437.175781 955.679688 443.230469 C 957.949219 448.699219 958.023438 449.242188 958.074219 460.5 C 958.121094 471.523438 958.023438 472.339844 956.167969 476.304688 C 953.804688 481.335938 949.125 485.363281 944.035156 486.738281 C 938.097656 488.34375 928.464844 486.753906 919.125 482.625 C 910.003906 478.589844 907.980469 477.75 907.371094 477.75 C 906.988281 477.75 905.28125 477.074219 903.574219 476.25 C 901.867188 475.425781 900.019531 474.75 899.472656 474.75 C 898.925781 474.75 897.894531 474.429688 897.175781 474.039062 C 894.171875 472.402344 885.511719 469.421875 880.382812 468.265625 C 873.707031 466.753906 853.230469 466.394531 850.425781 467.738281 C 849.4375 468.210938 847.445312 469.03125 846 469.558594 C 840.296875 471.648438 831.464844 478.535156 827.457031 484.015625 C 822.664062 490.582031 818.332031 497.308594 817.804688 499.003906 C 817.53125 499.894531 816.71875 501.46875 816.003906 502.5 C 811.453125 509.0625 798.136719 547.09375 795.683594 560.519531 L 794.542969 566.773438 C 794.253906 568.359375 793.871094 568.425781 783.933594 568.648438 C 778.265625 568.773438 765.53125 568.707031 755.640625 568.5 L 737.660156 568.125 L 737.144531 566.25 C 736.859375 565.21875 736.046875 561.675781 735.339844 558.375 C 733.507812 549.84375 728.039062 530.914062 726.019531 526.125 C 725.671875 525.300781 724.539062 522.40625 723.5 519.695312 C 722.464844 516.988281 720.238281 511.875 718.558594 508.335938 C 716.875 504.796875 715.5 501.691406 715.5 501.433594 C 715.5 501.175781 714.074219 498.695312 712.328125 495.917969 C 699.988281 476.289062 688.988281 467.921875 674.097656 466.839844 C 666.484375 466.285156 655.375 467.320312 648.75 469.199219 C 644.609375 470.375 624.230469 477.847656 611.636719 482.8125 C 600.253906 487.296875 591.59375 488.628906 586.722656 486.644531 C 579.386719 483.652344 578.742188 483.148438 576.304688 478.5 C 573.945312 473.996094 573.164062 471.113281 572.6875 465.148438 C 571.601562 451.539062 575.464844 441.140625 590.429688 417.375 C 599.769531 402.539062 601.75 399.476562 602.3125 399 C 602.554688 398.792969 604.164062 396.195312 605.886719 393.226562 C 607.613281 390.253906 609.355469 387.617188 609.761719 387.367188 C 610.832031 386.707031 610.667969 383.25 609.570312 383.25 C 609.054688 383.25 601.546875 390.421875 592.882812 399.1875 C 584.214844 407.953125 574.441406 417.488281 571.160156 420.375 C 559.214844 430.886719 555.28125 434.714844 550.363281 440.597656 C 545.304688 446.652344 539.058594 457.722656 537.632812 463.171875 C 535.136719 472.675781 535.253906 487.777344 537.894531 496.875 C 540.960938 507.453125 548.960938 517.882812 558.230469 523.394531 C 565.296875 527.597656 567.953125 528.257812 579.140625 528.585938 C 590.246094 528.917969 594.792969 528.222656 605.25 524.609375 C 622.671875 518.589844 636.171875 516.855469 646.148438 519.351562 C 652.246094 520.878906 654.515625 521.960938 659.625 525.792969 C 672.386719 535.351562 683.394531 551.917969 692.488281 575.25 C 696.277344 584.972656 696.484375 587.507812 693.5625 588.433594 C 691.816406 588.988281 681.257812 595.203125 679.441406 596.746094 C 677.691406 598.230469 676.878906 598.046875 670.226562 594.65625 C 658.726562 588.796875 656.464844 588.289062 637.5 587.324219 C 625.589844 586.714844 623.761719 586.433594 617.757812 584.28125 C 608.785156 581.058594 608.636719 581.195312 609.261719 592.117188 C 609.832031 602.117188 611.949219 608.503906 617.078125 615.714844 C 621.246094 621.570312 624.246094 624.515625 629.90625 628.296875 C 638.488281 634.035156 645.640625 635.554688 678.75 638.679688 C 693.417969 640.066406 696.761719 640.722656 698.042969 642.476562 C 698.710938 643.394531 699 646.957031 699 654.332031 C 699 660.128906 699.390625 667.683594 699.871094 671.113281 C 700.800781 677.773438 700.144531 683.816406 697.742188 690.75 C 697.097656 692.605469 696.3125 695.136719 695.992188 696.375 C 695.671875 697.613281 693.167969 705.039062 690.425781 712.875 C 682.542969 735.429688 681.285156 739.230469 678.015625 750.375 C 674.984375 760.71875 672.523438 770.386719 671.242188 777 C 670.882812 778.855469 670.226562 782.0625 669.789062 784.125 C 667.957031 792.707031 665.835938 804.761719 665.167969 810.375 C 664.777344 813.675781 664.160156 818.738281 663.792969 821.625 C 663.429688 824.511719 662.773438 830.417969 662.332031 834.75 C 661.894531 839.082031 661.367188 843.46875 661.164062 844.5 C 660.675781 846.972656 659.964844 865.078125 659.917969 876.289062 C 659.871094 887.136719 660.425781 888.195312 664.964844 885.921875 C 666.566406 885.121094 668.84375 884.230469 670.03125 883.945312 C 671.832031 883.511719 672.113281 883.625 671.71875 884.648438 C 671.460938 885.320312 671.25 886.183594 671.25 886.5625 C 671.25 886.941406 670.773438 887.25 670.1875 887.25 C 668.585938 887.25 665.046875 893.972656 666.027344 895.15625 C 666.585938 895.832031 666.535156 896.214844 665.84375 896.492188 C 665.101562 896.789062 665.09375 896.894531 665.8125 896.941406 C 666.328125 896.972656 666.75 897.476562 666.75 898.054688 C 666.75 898.699219 666.226562 898.972656 665.414062 898.761719 C 664.429688 898.503906 663.761719 899.160156 662.867188 901.269531 C 661.539062 904.410156 660.714844 907.625 660.507812 910.480469 C 660.433594 911.5 659.804688 912.914062 659.105469 913.625 C 658.40625 914.335938 657.636719 916.199219 657.394531 917.769531 C 657.152344 919.339844 656.585938 922.476562 656.136719 924.738281 C 654.890625 930.976562 654.65625 934.867188 654.398438 953.625 C 654.214844 966.929688 654.382812 971.132812 655.128906 972 C 655.722656 972.6875 656.234375 976.039062 656.445312 980.625 C 656.636719 984.761719 657.480469 990.648438 658.328125 993.75 C 660.234375 1000.714844 661.5 1007.636719 661.5 1011.082031 C 661.5 1012.523438 661.855469 1014.054688 662.289062 1014.488281 C 662.839844 1015.039062 662.75 1016.15625 661.984375 1018.199219 C 661.382812 1019.808594 660.519531 1024.023438 660.058594 1027.566406 C 659.601562 1031.113281 658.71875 1035.835938 658.09375 1038.066406 C 657.472656 1040.300781 656.800781 1044.191406 656.605469 1046.71875 C 656.410156 1049.242188 655.746094 1052.746094 655.125 1054.5 C 654.507812 1056.253906 654 1058.617188 654 1059.75 C 654 1060.882812 653.433594 1063.289062 652.738281 1065.09375 C 651.683594 1067.832031 651.441406 1071.859375 651.257812 1089.375 C 651.011719 1113.191406 651.757812 1111.171875 644.25 1108.378906 C 641.980469 1107.535156 637.761719 1105.828125 634.875 1104.589844 C 631.988281 1103.351562 628.613281 1101.976562 627.375 1101.53125 C 620.929688 1099.210938 594.832031 1086.5 588.230469 1082.46875 C 585.835938 1081.003906 582.019531 1078.820312 579.75 1077.613281 C 573.234375 1074.152344 566.851562 1070.308594 564 1068.128906 C 562.558594 1067.027344 559.378906 1064.773438 556.933594 1063.125 L 549.804688 1058.3125 C 548.332031 1057.316406 544.929688 1054.777344 542.25 1052.667969 C 539.570312 1050.558594 536.53125 1048.296875 535.5 1047.640625 C 534.46875 1046.988281 532.191406 1045.054688 530.4375 1043.351562 C 528.683594 1041.644531 526.996094 1040.25 526.683594 1040.25 C 526.375 1040.25 523.5625 1037.972656 520.4375 1035.1875 C 517.3125 1032.402344 513.597656 1029.132812 512.1875 1027.917969 C 502.15625 1019.289062 472.488281 988.644531 470.101562 984.445312 C 469.816406 983.9375 468.351562 982.199219 466.847656 980.574219 C 465.34375 978.953125 463.070312 976.105469 461.796875 974.25 C 460.519531 972.394531 458.390625 969.523438 457.058594 967.875 C 453.824219 963.863281 446.484375 953.585938 445.390625 951.542969 C 444.90625 950.644531 444.144531 949.53125 443.695312 949.078125 C 441.746094 947.105469 435.75 937.890625 435.75 936.871094 C 435.75 936.554688 434.757812 934.945312 433.542969 933.292969 C 432.328125 931.640625 430.441406 928.621094 429.347656 926.582031 C 427.730469 923.585938 426.089844 920.597656 424.425781 917.625 C 421.804688 912.929688 411.464844 892.453125 408.867188 886.8125 C 406.414062 881.480469 403.1875 873.578125 400.78125 867 C 399.347656 863.082031 397.855469 859.289062 397.460938 858.574219 C 397.070312 857.855469 396.75 856.90625 396.75 856.464844 C 396.75 856.019531 395.9375 853.90625 394.945312 851.765625 C 393.953125 849.625 392.796875 846.355469 392.378906 844.5 C 391.957031 842.644531 390.570312 837.75 389.296875 833.625 C 388.019531 829.5 386.765625 824.945312 386.507812 823.5 C 386.253906 822.054688 385.789062 820.539062 385.480469 820.125 C 385.171875 819.710938 384.523438 817.351562 384.039062 814.875 C 383.554688 812.398438 382.683594 808.855469 382.101562 807 C 381.089844 803.78125 380.117188 798.824219 378.710938 789.75 C 378.359375 787.480469 377.714844 783.429688 377.277344 780.75 C 376.839844 778.070312 376.140625 773.007812 375.726562 769.5 C 375.070312 763.996094 374.394531 758.496094 373.699219 753 C 371.832031 738.230469 371.835938 688.5625 373.703125 677.304688 C 374.417969 673.003906 375 667.9375 375 666.042969 C 375 663.046875 376.21875 655.246094 380.648438 629.851562 C 381.203125 626.679688 381.964844 623.472656 382.339844 622.726562 C 382.71875 621.984375 383.460938 619.179688 383.996094 616.5 C 384.527344 613.820312 385.253906 611.304688 385.605469 610.914062 C 385.960938 610.519531 386.25 609.414062 386.25 608.449219 C 386.25 607.488281 386.886719 604.773438 387.660156 602.414062 C 388.4375 600.054688 390.671875 593.0625 392.625 586.875 C 394.578125 580.6875 396.644531 575.09375 397.214844 574.441406 C 397.785156 573.789062 398.253906 572.609375 398.257812 571.816406 C 398.261719 571.023438 399.09375 568.6875 400.109375 566.625 C 401.125 564.5625 401.964844 562.429688 401.976562 561.882812 C 401.988281 561.335938 403.820312 557.117188 406.042969 552.507812 C 408.269531 547.898438 410.300781 543.40625 410.566406 542.527344 C 410.828125 541.648438 412.886719 537.492188 415.140625 533.289062 C 417.390625 529.085938 420.253906 523.5625 421.496094 521.011719 C 422.738281 518.460938 424.34375 515.476562 425.066406 514.378906 C 426.941406 511.519531 431.308594 504.40625 433.5 500.644531 C 435.296875 497.558594 436.425781 495.921875 442.6875 487.335938 C 444.234375 485.214844 445.5 483.023438 445.5 482.464844 C 445.5 481.910156 445.972656 481.269531 446.554688 481.046875 C 447.132812 480.824219 448.773438 478.894531 450.195312 476.757812 C 451.621094 474.625 454.015625 471.355469 455.523438 469.5 C 457.027344 467.644531 458.511719 465.78125 458.816406 465.363281 C 459.980469 463.777344 469.832031 452.386719 474.996094 446.660156 C 482.960938 437.832031 499.484375 421.550781 508.875 413.289062 C 516.421875 406.648438 520.753906 403.136719 534.191406 392.757812 C 536.765625 390.765625 539.144531 388.65625 539.476562 388.070312 C 539.804688 387.480469 540.664062 387 541.386719 387 C 542.109375 387 544.707031 385.554688 547.164062 383.789062 C 549.617188 382.023438 553.480469 379.441406 555.75 378.050781 C 558.019531 376.660156 561.898438 374.144531 564.375 372.457031 C 571.464844 367.621094 597.421875 354.445312 615.75 346.378906 C 617.605469 345.5625 619.710938 344.578125 620.425781 344.195312 C 621.144531 343.8125 622.148438 343.5 622.660156 343.5 C 623.171875 343.5 625.964844 342.625 628.859375 341.554688 C 631.757812 340.480469 635.980469 338.925781 638.25 338.097656 C 640.519531 337.269531 643.386719 336.144531 644.625 335.601562 C 647.074219 334.53125 666.773438 328.808594 671.625 327.761719 C 673.273438 327.402344 675.976562 326.726562 677.625 326.257812 C 679.273438 325.789062 681.976562 325.09375 683.625 324.710938 C 685.273438 324.332031 687.976562 323.652344 689.625 323.199219 C 691.273438 322.746094 694.480469 322.089844 696.75 321.746094 C 699.019531 321.402344 703.914062 320.5625 707.625 319.882812 C 719.933594 317.621094 722.953125 317.21875 736.34375 316.039062 C 766.671875 313.367188 791.898438 313.277344 821.832031 315.734375 C 835.632812 316.863281 851.515625 319.34375 870.75 323.363281 C 872.605469 323.75 875.644531 324.363281 877.5 324.722656 C 881.960938 325.585938 886.148438 326.695312 887.050781 327.25 C 887.453125 327.5 890.277344 328.066406 893.328125 328.507812 C 896.378906 328.949219 900.226562 329.785156 901.875 330.359375 C 903.523438 330.9375 906.394531 331.785156 908.25 332.25 C 910.105469 332.710938 912.214844 333.261719 912.9375 333.46875 C 913.660156 333.679688 914.25 333.480469 914.25 333.027344 C 914.25 332.574219 913.660156 332.003906 912.9375 331.757812 C 912.214844 331.511719 909.148438 330.164062 906.117188 328.761719 C 899.792969 325.832031 891.074219 322.601562 887.25 321.769531 C 885.804688 321.457031 883.105469 320.625 881.25 319.921875 C 879.394531 319.222656 876.863281 318.367188 875.625 318.027344 C 874.386719 317.6875 871.179688 316.730469 868.5 315.90625 C 865.820312 315.082031 861.09375 313.851562 858 313.171875 C 853.996094 312.289062 849.996094 311.378906 846 310.449219 C 842.492188 309.628906 837.9375 308.648438 835.875 308.265625 C 834 307.921875 832.125 307.570312 830.25 307.210938 C 827.75 306.730469 815.503906 304.78125 808.5 303.75 C 795.941406 301.902344 755.070312 300.019531 738.375 300.519531 M 1070.25 323.914062 C 1062.492188 326.421875 1053.171875 332.1875 1047.792969 337.796875 L 1045.210938 340.492188 L 1047.355469 342.730469 C 1051.703125 347.269531 1058.445312 347.554688 1066.976562 343.5625 C 1071.425781 341.480469 1071.75 341.160156 1071.753906 338.851562 C 1071.757812 335.910156 1073.992188 331.957031 1076.375 330.683594 C 1077.3125 330.179688 1079.1875 329.8125 1080.539062 329.863281 C 1081.894531 329.914062 1083 329.65625 1083 329.289062 C 1083 328.921875 1083.199219 328.105469 1083.441406 327.46875 C 1083.703125 326.789062 1083.101562 325.535156 1081.976562 324.40625 C 1079.667969 322.097656 1076.304688 321.957031 1070.25 323.914062 M 916.832031 334.898438 C 917.632812 335.503906 919.128906 336 920.160156 336 C 921.972656 336 921.988281 335.960938 920.582031 334.898438 C 919.78125 334.292969 918.28125 333.796875 917.25 333.796875 C 915.441406 333.796875 915.425781 333.835938 916.832031 334.898438 M 390.976562 347.230469 C 386.367188 349.164062 385.695312 358.957031 389.613281 367.101562 C 390.796875 369.5625 393.660156 373.527344 395.980469 375.914062 C 399.554688 379.585938 400.605469 380.25 402.859375 380.25 C 407.140625 380.25 408.28125 378.355469 407.824219 372 C 407.503906 367.480469 406.835938 365.503906 403.214844 358.296875 C 400.886719 353.664062 398.527344 349.285156 397.972656 348.566406 C 396.742188 346.964844 393.210938 346.292969 390.976562 347.230469 M 1105.429688 358.417969 C 1098.761719 361.027344 1090.328125 368.183594 1089.382812 372.03125 C 1089.050781 373.378906 1089.402344 374.558594 1090.574219 376.046875 C 1092.152344 378.054688 1092.46875 378.140625 1097.179688 377.824219 C 1103.136719 377.421875 1108.550781 375.414062 1116.457031 370.671875 C 1121.8125 367.460938 1122.398438 366.878906 1122.621094 364.558594 C 1122.917969 361.410156 1121.683594 358.9375 1119.257812 357.832031 C 1116.523438 356.585938 1109.332031 356.890625 1105.429688 358.417969 M 339.371094 365.519531 C 332.507812 367.742188 328.261719 370.292969 322.277344 375.777344 C 316.21875 381.328125 310.53125 388.914062 307.382812 395.640625 C 304.09375 402.671875 303.53125 410.777344 305.988281 415.847656 C 308.167969 420.351562 312.019531 423 316.398438 423 C 319.292969 423 320.097656 422.597656 322.972656 419.722656 C 325.753906 416.945312 326.25 415.992188 326.25 413.441406 C 326.25 410.363281 324.132812 407.261719 323.4375 409.320312 C 322.332031 412.613281 317.386719 411.738281 315.003906 407.832031 C 311.320312 401.792969 314.4375 392.121094 322.800781 383.644531 C 330.734375 375.605469 339.234375 372.878906 348.757812 375.316406 C 355.230469 376.976562 359.3125 379.476562 365.84375 385.78125 C 374.285156 393.9375 378.335938 403.929688 376.507812 412.09375 C 375.464844 416.738281 372.664062 422.128906 369.953125 424.699219 L 367.769531 426.773438 L 365.378906 423.199219 C 362.472656 418.84375 337.164062 390.335938 334.382812 388.285156 C 333.289062 387.476562 331.496094 386.8125 330.398438 386.8125 C 328.164062 386.8125 324.5 389.914062 322.734375 393.296875 C 321.628906 395.414062 321.664062 395.519531 324.113281 397.414062 C 327.691406 400.183594 328.203125 400.730469 343 417.582031 L 356.351562 432.789062 L 354.425781 435.078125 C 350.984375 439.164062 350.957031 443.703125 354.355469 445.933594 C 358.359375 448.554688 364.574219 444.09375 367.195312 436.714844 C 368.199219 433.882812 369.292969 432.515625 372.078125 430.59375 C 379.019531 425.808594 385.585938 414.890625 387.070312 405.664062 C 388.8125 394.851562 384.410156 383.40625 375.054688 374.429688 C 364.816406 364.605469 352.039062 361.414062 339.371094 365.519531 M 579.375 629.996094 C 575.265625 630.292969 573.214844 630.898438 569.945312 632.792969 C 561.328125 637.773438 554.109375 647.632812 551.949219 657.375 C 551.492188 659.4375 550.894531 661.851562 550.621094 662.742188 C 550.347656 663.628906 546.933594 666.835938 543.035156 669.867188 C 539.097656 672.925781 533.210938 678.542969 529.792969 682.5 C 526.414062 686.417969 523.128906 689.730469 522.496094 689.859375 C 521.867188 689.984375 520.230469 689.511719 518.863281 688.800781 C 513.089844 685.808594 506.195312 684.613281 491.25 684.015625 C 482.617188 683.671875 476.085938 683.710938 475.3125 684.117188 C 473.738281 684.941406 473.636719 687.058594 475.023438 690.261719 C 475.84375 692.167969 476.652344 694.082031 477.445312 696 C 479.34375 700.566406 489.617188 710.75 495.007812 713.402344 C 497.273438 714.515625 500.726562 716.035156 502.683594 716.777344 C 504.640625 717.519531 506.246094 718.488281 506.246094 718.929688 C 506.25 719.890625 494.53125 731.285156 489.746094 734.972656 C 487.890625 736.402344 485.679688 738.257812 484.832031 739.097656 C 483.984375 739.9375 482.394531 741.316406 481.300781 742.160156 C 480.203125 743.003906 477.40625 745.507812 475.082031 747.722656 L 470.855469 751.757812 L 471.242188 757.816406 C 472.300781 774.363281 477.753906 787.523438 484.46875 789.738281 C 487.363281 790.695312 487.992188 790.609375 494.648438 788.359375 C 502.980469 785.539062 508.675781 784.789062 526.6875 784.128906 L 540 783.640625 L 540 804.5625 C 540 821.550781 539.777344 826.175781 538.816406 829.179688 C 536.203125 837.351562 531.554688 843.871094 525.464844 847.914062 C 522.015625 850.207031 510.222656 854.996094 504.375 856.484375 C 503.136719 856.796875 501.28125 857.417969 500.25 857.863281 C 499.21875 858.304688 493.648438 860.175781 487.875 862.019531 C 482.101562 863.863281 475.351562 866.074219 472.875 866.929688 C 470.398438 867.785156 460.613281 871.023438 451.125 874.128906 C 441.636719 877.230469 432.546875 880.207031 430.921875 880.746094 C 425.902344 882.417969 425.898438 883.148438 430.867188 893.03125 C 444.898438 920.941406 465.121094 951.976562 483.75 974.191406 C 496.246094 989.09375 514.59375 1007.78125 527.25 1018.5 C 529.929688 1020.769531 534.085938 1024.46875 536.484375 1026.722656 C 538.886719 1028.980469 541.964844 1031.511719 543.324219 1032.347656 C 544.6875 1033.1875 548.523438 1035.898438 551.84375 1038.375 C 561.402344 1045.492188 571.449219 1052.484375 574.65625 1054.246094 C 577.367188 1055.738281 580.921875 1057.984375 585.8125 1061.296875 C 586.878906 1062.019531 591.097656 1064.378906 595.1875 1066.539062 C 599.277344 1068.699219 602.960938 1070.71875 603.375 1071.03125 C 604.8125 1072.109375 622.160156 1080.632812 627 1082.636719 C 629.679688 1083.75 632.210938 1084.910156 632.625 1085.21875 C 634.292969 1086.464844 641.148438 1088.449219 642.28125 1088.015625 C 643.398438 1087.585938 643.511719 1072.539062 643.6875 905.957031 L 643.875 724.363281 L 649.875 721.953125 C 653.175781 720.625 657.757812 718.320312 660.058594 716.832031 C 665.519531 713.289062 674.347656 703.789062 677.640625 697.898438 C 679.878906 693.894531 680.25 692.53125 680.25 688.324219 L 680.25 683.421875 L 668.8125 683.746094 C 653.058594 684.199219 638.085938 686.84375 632.625 690.136719 C 628.5625 692.589844 628.515625 692.550781 624.222656 683.425781 C 623.5 681.886719 621.96875 679.070312 620.828125 677.167969 C 619.683594 675.265625 618.75 673.230469 618.75 672.644531 C 618.75 671.195312 626.222656 660.027344 631.398438 653.742188 C 637.335938 646.53125 640.5 642.015625 640.5 640.753906 C 640.5 640.160156 639.328125 639.183594 637.898438 638.585938 C 632.886719 636.492188 621.90625 637.707031 615.375 641.078125 C 611.605469 643.023438 605.027344 649.3125 600.882812 654.9375 C 597.589844 659.402344 597.113281 659.695312 594.925781 658.59375 C 591.960938 657.09375 588.019531 656.25 583.984375 656.25 C 580.996094 656.25 579.582031 655.929688 579.296875 655.195312 C 578.839844 654.003906 580.425781 648.925781 582.625 644.554688 C 585.101562 639.628906 588.085938 631.496094 587.667969 630.820312 C 587.035156 629.796875 584.976562 629.589844 579.375 629.996094 M 958.875 669 C 958.621094 669.414062 958.769531 669.75 959.207031 669.75 C 959.640625 669.75 960 669.414062 960 669 C 960 668.585938 959.851562 668.25 959.667969 668.25 C 959.488281 668.25 959.128906 668.585938 958.875 669 M 798.058594 772.1875 C 798.09375 773.0625 798.273438 773.238281 798.511719 772.640625 C 798.730469 772.097656 798.703125 771.453125 798.453125 771.203125 C 798.203125 770.953125 798.027344 771.398438 798.058594 772.1875 M 741.5625 840.496094 C 742.078125 840.703125 742.921875 840.703125 743.4375 840.496094 C 743.953125 840.289062 743.53125 840.117188 742.5 840.117188 C 741.46875 840.117188 741.046875 840.289062 741.5625 840.496094 M 750.203125 840.519531 C 750.929688 840.710938 751.945312 840.699219 752.453125 840.492188 C 752.960938 840.285156 752.363281 840.132812 751.125 840.144531 C 749.886719 840.160156 749.472656 840.328125 750.203125 840.519531 M 762.5625 840.496094 C 763.078125 840.703125 763.921875 840.703125 764.4375 840.496094 C 764.953125 840.289062 764.53125 840.117188 763.5 840.117188 C 762.46875 840.117188 762.046875 840.289062 762.5625 840.496094 M 766.3125 840.496094 C 766.828125 840.703125 767.671875 840.703125 768.1875 840.496094 C 768.703125 840.289062 768.28125 840.117188 767.25 840.117188 C 766.21875 840.117188 765.796875 840.289062 766.3125 840.496094 M 657.4375 978.648438 C 657.113281 979.171875 657.050781 979.800781 657.300781 980.050781 C 657.972656 980.722656 658.703125 979.734375 658.339844 978.644531 C 658.085938 977.882812 657.910156 977.882812 657.4375 978.648438 M 332.398438 1014.898438 C 331.816406 1015.484375 331.5 1018.523438 331.5 1023.5625 C 331.5 1031.109375 331.570312 1031.429688 334.058594 1035.324219 C 335.46875 1037.523438 338.496094 1041.304688 340.789062 1043.722656 C 343.5625 1046.652344 345.371094 1049.378906 346.203125 1051.875 C 346.886719 1053.9375 347.957031 1056.515625 348.585938 1057.605469 C 349.210938 1058.691406 349.507812 1060.148438 349.242188 1060.84375 C 348.804688 1061.984375 348.476562 1061.941406 345.738281 1060.402344 C 341.785156 1058.183594 333.285156 1049.15625 330.136719 1043.839844 C 327.328125 1039.105469 324.117188 1037.097656 322.066406 1038.796875 C 320.46875 1040.125 321.160156 1043.820312 324.125 1049.777344 C 326.304688 1054.164062 326.847656 1054.671875 333.65625 1058.710938 C 337.625 1061.066406 341.800781 1063.757812 342.933594 1064.695312 C 344.066406 1065.628906 345.753906 1066.628906 346.683594 1066.910156 C 349.671875 1067.816406 353.253906 1071.023438 357.421875 1076.515625 C 367.425781 1089.703125 367.726562 1090.058594 375.5625 1098.230469 C 379.210938 1102.03125 380.246094 1103.554688 379.613281 1104.1875 C 378.011719 1105.785156 367.847656 1099.984375 363.074219 1094.746094 C 355.863281 1086.835938 351.882812 1083.421875 347.046875 1081.015625 C 337.089844 1076.054688 336 1075.925781 336 1079.722656 C 336 1083.332031 339.394531 1089.121094 344.394531 1094.035156 C 347.84375 1097.425781 349.324219 1098.257812 355.5 1100.277344 C 363.746094 1102.976562 378.183594 1109.554688 381.183594 1111.980469 C 382.316406 1112.898438 383.953125 1113.871094 384.824219 1114.148438 C 385.695312 1114.425781 387.539062 1115.421875 388.929688 1116.363281 C 392.675781 1118.90625 403.5 1129.136719 403.5 1130.132812 C 403.5 1131.535156 399.773438 1131.125 397.703125 1129.5 C 396.65625 1128.675781 395.398438 1128 394.90625 1128 C 394.414062 1128 392 1127.023438 389.539062 1125.832031 C 382.859375 1122.59375 369.65625 1120.933594 364.921875 1122.730469 C 362.894531 1123.503906 362.535156 1124.46875 363.710938 1125.96875 C 370.015625 1133.984375 375.183594 1137.355469 382.816406 1138.4375 C 387.773438 1139.140625 391.703125 1138.675781 402.375 1136.125 C 409.214844 1134.488281 408.75 1134.359375 415.125 1139.691406 C 418.425781 1142.449219 422.335938 1145.757812 423.816406 1147.042969 C 425.296875 1148.324219 427.464844 1150.050781 428.628906 1150.875 C 429.792969 1151.699219 432.96875 1154.203125 435.683594 1156.433594 C 438.402344 1158.664062 441.722656 1161.144531 443.0625 1161.945312 C 444.402344 1162.746094 445.5 1163.871094 445.5 1164.449219 C 445.5 1166.230469 442.316406 1165.628906 436.976562 1162.847656 C 430.453125 1159.445312 422.238281 1158.242188 414.410156 1159.546875 C 407.621094 1160.675781 406.5 1161.296875 406.5 1163.929688 C 406.5 1167.238281 411.902344 1171.773438 418.128906 1173.695312 C 425.679688 1176.027344 428.183594 1175.84375 444.375 1171.773438 C 446.851562 1171.152344 449.597656 1170.46875 450.476562 1170.25 C 451.5625 1169.984375 453.75 1170.9375 457.226562 1173.183594 C 467.113281 1179.578125 469.90625 1181.230469 474.1875 1183.234375 C 480.207031 1186.054688 480.039062 1187.660156 473.8125 1186.785156 C 471.234375 1186.421875 464.90625 1186.164062 459.75 1186.214844 C 451.992188 1186.285156 449.761719 1186.574219 446.8125 1187.875 C 444.851562 1188.738281 443.25 1189.730469 443.25 1190.078125 C 443.25 1192.261719 448.203125 1195.578125 454.5 1197.613281 C 459.027344 1199.074219 459.75 1199.113281 464.625 1198.171875 C 473.179688 1196.519531 477.835938 1194.945312 479.917969 1193 C 483.386719 1189.757812 484.347656 1189.890625 492.324219 1194.757812 C 500.878906 1199.972656 520.300781 1209.753906 522.097656 1209.753906 C 523.511719 1209.75 525.21875 1211.53125 524.492188 1212.257812 C 524.222656 1212.527344 518.742188 1212.761719 512.3125 1212.777344 C 496.785156 1212.8125 486.101562 1214.804688 484.097656 1218.042969 C 483.351562 1219.25 485.960938 1221.757812 489.75 1223.46875 C 492.375 1224.652344 494.710938 1224.996094 500.25 1225.003906 C 506.933594 1225.015625 507.945312 1224.800781 516.648438 1221.496094 C 521.746094 1219.558594 526.769531 1217.304688 527.8125 1216.488281 C 530.296875 1214.535156 532.371094 1214.609375 537.167969 1216.835938 C 541.222656 1218.71875 546.117188 1220.542969 555.375 1223.621094 C 563.867188 1226.449219 573.277344 1230.460938 573.585938 1231.390625 C 573.796875 1232.011719 570.753906 1232.25 562.632812 1232.25 C 552.785156 1232.25 550.742188 1232.46875 546.132812 1234.027344 C 541.601562 1235.5625 536.25 1238.46875 536.25 1239.394531 C 536.25 1239.558594 537.175781 1240.550781 538.3125 1241.609375 C 543.410156 1246.347656 555.714844 1248.070312 562.796875 1245.035156 C 566.304688 1243.527344 571.828125 1240.027344 577.117188 1235.953125 C 580.722656 1233.179688 581.707031 1233.25 593.625 1237.183594 C 595.6875 1237.863281 598.726562 1238.695312 600.375 1239.027344 C 602.023438 1239.363281 604.726562 1240.023438 606.375 1240.496094 C 609.644531 1241.429688 610.921875 1241.703125 615.207031 1242.378906 C 616.90625 1242.648438 617.847656 1243.140625 617.554688 1243.609375 C 617.238281 1244.125 614.796875 1244.214844 610.425781 1243.867188 C 600.800781 1243.109375 596.945312 1244.199219 592.128906 1249.050781 C 588.164062 1253.046875 585.90625 1258.003906 587.289062 1259.671875 C 589.234375 1262.015625 603.046875 1261.453125 608.710938 1258.800781 C 615.15625 1255.785156 619.894531 1251.210938 621.347656 1246.597656 C 621.890625 1244.878906 622.117188 1244.828125 627.855469 1245.160156 C 635.480469 1245.601562 636.542969 1246.558594 632.960938 1249.75 C 631.496094 1251.054688 627.980469 1255.476562 625.140625 1259.574219 C 620.910156 1265.6875 619.972656 1267.574219 619.929688 1270.074219 C 619.878906 1272.988281 619.984375 1273.136719 622.335938 1273.363281 C 626.109375 1273.726562 629.5625 1269.90625 630.710938 1264.097656 C 632.246094 1256.359375 632.941406 1254.792969 635.082031 1254.253906 C 636.164062 1253.984375 638.523438 1252.632812 640.332031 1251.257812 C 642.136719 1249.878906 643.855469 1248.75 644.148438 1248.75 C 644.441406 1248.75 650.238281 1249.789062 657.027344 1251.058594 C 663.820312 1252.332031 670.808594 1253.554688 672.5625 1253.78125 C 674.316406 1254.007812 675.75 1254.496094 675.75 1254.867188 C 675.75 1255.792969 672.347656 1257 669.734375 1257 C 666.25 1257 657.984375 1261.363281 655.480469 1264.523438 C 653.136719 1267.484375 652.601562 1270.527344 654.199219 1271.851562 C 655.585938 1273.003906 664.289062 1271.007812 669.625 1268.3125 C 674.105469 1266.050781 677.804688 1262.5 679.898438 1258.449219 C 681.453125 1255.445312 683.03125 1254.964844 689.078125 1255.65625 C 691.855469 1255.972656 700.773438 1256.625 708.902344 1257.105469 C 724.910156 1258.050781 725.449219 1258.238281 723.433594 1262.136719 C 721.34375 1266.175781 705.347656 1280.25 702.84375 1280.25 C 701.914062 1280.25 699.75 1283.234375 699.75 1284.515625 C 699.75 1287.53125 709.167969 1286.683594 714.332031 1283.203125 C 716.699219 1281.605469 721.5 1275.429688 721.5 1273.976562 C 721.5 1273.066406 727.683594 1263.445312 729.640625 1261.3125 C 731.199219 1259.609375 732.160156 1259.25 735.140625 1259.25 C 738.390625 1259.25 738.746094 1259.417969 738.722656 1260.9375 C 738.707031 1262.097656 736.957031 1264.085938 733.097656 1267.328125 C 729.601562 1270.265625 727.5 1272.585938 727.5 1273.515625 C 727.5 1275.375 727.277344 1275.402344 732.496094 1272.90625 C 737.058594 1270.722656 740.675781 1268.449219 746.054688 1264.394531 L 749.230469 1261.996094 L 753.554688 1265.351562 C 759.164062 1269.707031 766.429688 1273.949219 769.402344 1274.601562 C 771.4375 1275.050781 771.75 1274.914062 771.75 1273.578125 C 771.75 1272.558594 770.132812 1270.820312 766.972656 1268.453125 C 762.105469 1264.804688 758.761719 1260.988281 759.453125 1259.871094 C 759.664062 1259.53125 761.453125 1259.25 763.425781 1259.25 C 766.933594 1259.25 769.5 1260.742188 769.5 1262.777344 C 769.5 1263.210938 770.023438 1264 770.667969 1264.535156 C 771.308594 1265.066406 773.578125 1268.738281 775.707031 1272.6875 C 777.835938 1276.640625 780.761719 1280.960938 782.210938 1282.285156 C 786.011719 1285.769531 795.242188 1287.546875 797.210938 1285.171875 C 798.519531 1283.597656 797.003906 1281.230469 793.839844 1279.910156 C 788.09375 1277.507812 772.855469 1262.238281 773.394531 1259.417969 C 773.660156 1258.019531 775.8125 1257.757812 796.125 1256.683594 C 801.488281 1256.398438 807.988281 1255.835938 810.566406 1255.433594 C 815.941406 1254.597656 817.976562 1255.269531 818.691406 1258.117188 C 819.238281 1260.300781 825.640625 1265.9375 830.527344 1268.535156 C 834.621094 1270.710938 841.558594 1272.425781 843.40625 1271.714844 C 845.433594 1270.9375 844.304688 1266.273438 841.339844 1263.183594 C 838.367188 1260.085938 832.578125 1257.003906 829.710938 1256.988281 C 826.476562 1256.972656 824.25 1256.175781 824.25 1255.035156 C 824.25 1254.324219 825.203125 1254 827.300781 1254 C 828.976562 1254 830.925781 1253.691406 831.628906 1253.3125 C 832.96875 1252.597656 849.125 1249.496094 853.28125 1249.160156 C 856.667969 1248.882812 861.078125 1251.066406 863.789062 1254.355469 C 865.890625 1256.90625 866.78125 1259.210938 868.128906 1265.574219 C 868.835938 1268.890625 873.792969 1273.5 876.660156 1273.5 C 878.769531 1273.5 879 1273.273438 879 1271.210938 C 879 1268.53125 877.542969 1265.449219 875.328125 1263.445312 C 874.460938 1262.660156 873.75 1261.714844 873.75 1261.347656 C 873.75 1259.8125 868.160156 1251.921875 865.257812 1249.363281 C 863.199219 1247.546875 862.382812 1246.351562 862.875 1245.875 C 863.289062 1245.476562 866.488281 1245.03125 869.988281 1244.886719 L 876.351562 1244.625 L 877.601562 1247.265625 C 879.265625 1250.785156 885.746094 1256.75 889.902344 1258.589844 C 895.496094 1261.0625 910.40625 1261.972656 911.675781 1259.914062 C 912.695312 1258.265625 909.964844 1252.660156 906.375 1249.050781 C 901.46875 1244.113281 897.792969 1243.121094 887.230469 1243.875 C 878.417969 1244.507812 877.089844 1243.410156 885.066406 1242.089844 C 887.992188 1241.609375 891.578125 1240.714844 893.035156 1240.105469 C 894.492188 1239.496094 896.402344 1238.996094 897.277344 1238.992188 C 898.15625 1238.988281 902.535156 1237.808594 907.011719 1236.367188 C 911.488281 1234.929688 915.949219 1233.75 916.925781 1233.75 C 917.917969 1233.75 921.285156 1235.664062 924.539062 1238.082031 C 927.75 1240.460938 932.398438 1243.382812 934.875 1244.570312 C 943.101562 1248.519531 955.21875 1246.957031 960.34375 1241.285156 C 961.453125 1240.058594 961.625 1239.351562 961.042969 1238.394531 C 960.039062 1236.730469 954.148438 1233.820312 951.710938 1233.78125 C 950.660156 1233.765625 949.441406 1233.390625 949.003906 1232.953125 C 948.515625 1232.464844 943.832031 1232.148438 936.855469 1232.136719 C 928.078125 1232.121094 925.5 1231.894531 925.5 1231.144531 C 925.5 1230.609375 926.089844 1229.980469 926.8125 1229.738281 C 927.535156 1229.5 930.320312 1228.492188 933 1227.496094 C 935.679688 1226.5 940.238281 1224.832031 943.125 1223.789062 C 946.011719 1222.742188 951.582031 1220.636719 955.5 1219.101562 C 959.417969 1217.566406 963.902344 1216.148438 965.460938 1215.949219 C 968.226562 1215.597656 972.75 1216.867188 972.75 1217.996094 C 972.75 1218.308594 973.761719 1218.761719 974.996094 1219.011719 C 976.230469 1219.257812 978.628906 1220.132812 980.328125 1220.953125 C 986.03125 1223.707031 995.789062 1225.71875 1000.742188 1225.15625 C 1008.066406 1224.328125 1014.75 1221.011719 1014.75 1218.199219 C 1014.75 1216.5 1008.339844 1214.1875 1000.652344 1213.113281 C 995.367188 1212.375 991.230469 1212.285156 985.179688 1212.777344 C 973.59375 1213.71875 970.121094 1212.574219 976.6875 1209.976562 C 978.441406 1209.285156 982.742188 1207.261719 986.242188 1205.484375 C 989.746094 1203.703125 992.871094 1202.25 993.1875 1202.25 C 994.035156 1202.25 1007.5 1194.558594 1008.375 1193.574219 C 1008.789062 1193.109375 1010.210938 1192.304688 1011.535156 1191.785156 C 1013.703125 1190.933594 1014.347656 1191.039062 1017.910156 1192.828125 C 1022.378906 1195.066406 1031.007812 1198.066406 1035.082031 1198.792969 C 1040.429688 1199.75 1049.304688 1196.84375 1052.941406 1192.945312 L 1054.761719 1191 L 1053.0625 1189.1875 C 1050.132812 1186.074219 1036.96875 1184.667969 1027.585938 1186.472656 C 1022.121094 1187.523438 1019.960938 1187.472656 1020.410156 1186.300781 C 1020.609375 1185.78125 1021.695312 1184.945312 1022.824219 1184.445312 C 1026.253906 1182.921875 1038.71875 1175.339844 1042.324219 1172.589844 C 1045.808594 1169.929688 1047.550781 1169.488281 1049.824219 1170.6875 C 1050.539062 1171.066406 1053.824219 1171.941406 1057.125 1172.632812 C 1060.425781 1173.324219 1064.253906 1174.230469 1065.632812 1174.648438 C 1069.269531 1175.753906 1078.84375 1174.667969 1083.34375 1172.636719 C 1085.421875 1171.699219 1088.457031 1169.542969 1090.085938 1167.847656 C 1092.722656 1165.097656 1092.964844 1164.535156 1092.320312 1162.691406 C 1091.636719 1160.746094 1091.183594 1160.5625 1084.484375 1159.59375 C 1075.8125 1158.339844 1069.324219 1159.183594 1062.910156 1162.40625 C 1058.054688 1164.851562 1053.75 1166.007812 1053.75 1164.871094 C 1053.75 1163.734375 1060.085938 1158.382812 1067.863281 1152.949219 C 1071.707031 1150.265625 1075.25 1147.417969 1075.738281 1146.625 C 1077.109375 1144.394531 1090.058594 1134.75 1091.683594 1134.75 C 1092.476562 1134.75 1094.980469 1135.480469 1097.25 1136.371094 C 1100.648438 1137.707031 1103.023438 1138.003906 1110.75 1138.058594 C 1121.59375 1138.136719 1124.664062 1137.109375 1130.214844 1131.542969 C 1134.378906 1127.367188 1135.898438 1124.507812 1134.703125 1123.070312 C 1133.273438 1121.34375 1124.046875 1121.710938 1115.625 1123.828125 C 1114.800781 1124.035156 1112.945312 1124.5 1111.5 1124.863281 C 1110.054688 1125.222656 1107.1875 1126.375 1105.125 1127.417969 C 1096.617188 1131.722656 1093.664062 1130.480469 1100.0625 1125.289062 C 1102.019531 1123.699219 1105.144531 1120.996094 1107 1119.28125 C 1108.855469 1117.566406 1112.738281 1114.890625 1115.625 1113.332031 C 1126.9375 1107.230469 1138.1875 1101.75 1139.410156 1101.75 C 1140.636719 1101.75 1143.1875 1100.765625 1148.957031 1098.078125 C 1152.285156 1096.527344 1158.023438 1090.8125 1159.609375 1087.476562 C 1162.65625 1081.050781 1163.25 1078.78125 1162.289062 1077.253906 C 1160.445312 1074.3125 1140.949219 1086.121094 1136.378906 1092.949219 C 1134.804688 1095.300781 1129.523438 1100.253906 1127.671875 1101.113281 C 1126.820312 1101.507812 1124.945312 1102.472656 1123.5 1103.253906 C 1122.054688 1104.035156 1120.453125 1104.695312 1119.9375 1104.714844 C 1118.449219 1104.769531 1118.847656 1102.910156 1120.6875 1101.207031 C 1124.265625 1097.898438 1138.488281 1080.3125 1142.660156 1074.046875 C 1144.132812 1071.835938 1146.296875 1069.945312 1149.113281 1068.421875 C 1153.167969 1066.222656 1160.976562 1061.625 1167.375 1057.664062 C 1173.382812 1053.945312 1175.785156 1050.480469 1177.441406 1043.160156 C 1178.320312 1039.257812 1177.300781 1037.636719 1174.429688 1038.378906 C 1171.40625 1039.15625 1169.472656 1041.289062 1167.15625 1046.402344 C 1165.9375 1049.085938 1164.039062 1051.925781 1162.9375 1052.703125 C 1161.835938 1053.484375 1159.175781 1055.496094 1157.03125 1057.171875 C 1154.882812 1058.847656 1152.195312 1060.792969 1151.0625 1061.5 L 1149 1062.785156 L 1149 1060.632812 C 1149 1059.421875 1149.667969 1057.878906 1150.527344 1057.101562 C 1151.367188 1056.339844 1151.867188 1055.230469 1151.636719 1054.636719 C 1151.011719 1053.003906 1154.683594 1047.21875 1159.835938 1041.714844 C 1166.15625 1034.96875 1166.886719 1033.15625 1167.152344 1023.558594 C 1167.40625 1014.386719 1166.914062 1013.230469 1163.378906 1014.695312 C 1160.8125 1015.757812 1159.144531 1017.5625 1154.609375 1024.1875 C 1150.847656 1029.683594 1150.285156 1031.429688 1148.597656 1042.867188 C 1147.929688 1047.398438 1147.132812 1051.449219 1146.824219 1051.867188 C 1146.515625 1052.285156 1145.832031 1054.144531 1145.304688 1056 C 1143.910156 1060.910156 1140.421875 1067.824219 1137.171875 1072.125 C 1135.613281 1074.1875 1133.429688 1077.429688 1132.320312 1079.335938 C 1129.632812 1083.953125 1125.003906 1088.066406 1124.167969 1086.578125 C 1123.507812 1085.394531 1124.4375 1081.707031 1128.070312 1071.144531 L 1130.46875 1064.167969 L 1129.308594 1058.28125 C 1128.058594 1051.914062 1126.664062 1048.410156 1125.199219 1047.933594 C 1123.753906 1047.464844 1119.90625 1052.136719 1117.328125 1057.5 C 1115.332031 1061.65625 1115 1063.152344 1115.089844 1067.65625 C 1115.148438 1070.570312 1115.875 1075.113281 1116.714844 1077.78125 C 1117.546875 1080.445312 1118.234375 1084.382812 1118.238281 1086.535156 C 1118.25 1091.167969 1115.972656 1097.703125 1113.296875 1100.714844 C 1112.242188 1101.902344 1110.59375 1104.085938 1109.632812 1105.566406 C 1107.902344 1108.226562 1096.78125 1120.429688 1093.875 1122.855469 C 1093.050781 1123.542969 1089.527344 1126.839844 1086.046875 1130.179688 C 1082.566406 1133.515625 1079.433594 1136.25 1079.085938 1136.25 C 1077.097656 1136.25 1078.125 1128.589844 1080.21875 1127.789062 C 1080.746094 1127.585938 1082.167969 1125.949219 1083.375 1124.148438 C 1084.585938 1122.347656 1086.464844 1119.691406 1087.550781 1118.25 C 1088.640625 1116.804688 1090.46875 1113.261719 1091.613281 1110.375 C 1093.523438 1105.5625 1093.660156 1104.578125 1093.230469 1098.566406 C 1092.457031 1087.625 1089.140625 1083.34375 1084.945312 1087.867188 C 1081.941406 1091.109375 1077.339844 1100.949219 1075.640625 1107.75 C 1074.738281 1111.363281 1073.761719 1118.679688 1073.386719 1124.640625 C 1072.886719 1132.515625 1072.335938 1136.03125 1071.1875 1138.628906 C 1069.242188 1143.023438 1056.808594 1155.75 1054.460938 1155.75 C 1053.285156 1155.75 1052.964844 1155.421875 1053.296875 1154.554688 C 1053.550781 1153.898438 1053.976562 1152.464844 1054.25 1151.367188 C 1054.519531 1150.273438 1056.433594 1146.199219 1058.5 1142.316406 C 1061.859375 1136.015625 1062.296875 1134.648438 1062.585938 1129.566406 C 1063.128906 1120.113281 1060.488281 1113.957031 1057.097656 1116.773438 C 1054.703125 1118.761719 1049.96875 1126.667969 1049.25 1129.882812 C 1048.785156 1131.953125 1048.675781 1137.414062 1048.976562 1143.707031 C 1049.46875 1153.96875 1049.449219 1154.152344 1047.535156 1157.367188 C 1044.65625 1162.207031 1040.320312 1165.683594 1021.347656 1178.382812 C 1017.757812 1180.785156 1014.46875 1182.75 1014.035156 1182.75 C 1013.605469 1182.75 1013.25 1181.742188 1013.25 1180.507812 C 1013.25 1178.171875 1015.910156 1174.835938 1025.519531 1165.125 C 1027.964844 1162.648438 1030.441406 1159.503906 1031.019531 1158.132812 C 1034.101562 1150.800781 1032.21875 1135.5 1028.230469 1135.5 C 1026.300781 1135.5 1015.5 1148.835938 1015.5 1151.21875 C 1015.5 1151.589844 1014.3125 1155.375 1012.867188 1159.632812 C 1011.417969 1163.890625 1009.535156 1170.917969 1008.679688 1175.25 C 1006.765625 1184.984375 1005.628906 1186.59375 996.785156 1192.0625 C 987.992188 1197.5 972.167969 1205.441406 971.253906 1204.875 C 970.132812 1204.183594 972.726562 1200.0625 977.070312 1195.648438 C 979.222656 1193.460938 982.335938 1189.347656 983.996094 1186.507812 C 986.726562 1181.832031 987.050781 1180.722656 987.425781 1174.734375 C 987.660156 1171.011719 987.53125 1167.671875 987.125 1167.085938 C 985.984375 1165.429688 983.078125 1166.625 978.070312 1170.8125 C 970.179688 1177.40625 966.070312 1187.402344 966.015625 1200.136719 C 965.992188 1205.996094 965.160156 1207.15625 958.714844 1210.347656 C 955.503906 1211.941406 951.695312 1213.671875 950.25 1214.195312 C 948.804688 1214.722656 946.949219 1215.441406 946.125 1215.792969 C 942.113281 1217.515625 926.335938 1223.121094 924.1875 1223.589844 C 922.578125 1223.9375 921.75 1223.835938 921.75 1223.28125 C 921.75 1221.851562 924.121094 1218.75 925.210938 1218.75 C 925.78125 1218.75 926.25 1218.429688 926.25 1218.035156 C 926.25 1217.644531 928.527344 1216.0625 931.3125 1214.519531 C 940.097656 1209.660156 944.496094 1205.121094 946.480469 1198.875 C 947.003906 1197.222656 947.726562 1195.554688 948.089844 1195.160156 C 949.179688 1193.988281 948.84375 1189.011719 947.609375 1187.984375 C 945.035156 1185.851562 928.464844 1195.136719 924.699219 1200.824219 C 922.1875 1204.617188 920.988281 1207.476562 918.363281 1215.9375 C 915.3125 1225.75 912.371094 1227.804688 894 1232.960938 C 892.144531 1233.480469 889.851562 1234.207031 888.910156 1234.574219 C 887.964844 1234.941406 885.34375 1235.460938 883.082031 1235.726562 C 877.898438 1236.335938 878.058594 1235.125 883.585938 1231.871094 C 889.277344 1228.519531 889.589844 1228.320312 893.320312 1225.730469 C 897.65625 1222.722656 900.910156 1219.042969 902.1875 1215.710938 C 902.828125 1214.046875 903.503906 1212.398438 904.214844 1210.761719 C 905.582031 1207.640625 905.5625 1203.074219 904.179688 1202.542969 C 902.800781 1202.011719 897.085938 1204.546875 891.898438 1207.992188 C 887.648438 1210.8125 886.585938 1212.265625 878.164062 1226.804688 C 874.480469 1233.167969 873.1875 1234.757812 870.648438 1236.050781 C 865.160156 1238.851562 854.804688 1241.910156 842.757812 1244.292969 C 833.394531 1246.144531 831.75 1246.15625 831.75 1244.367188 C 831.75 1243.351562 833.1875 1242.417969 837.1875 1240.832031 C 845.851562 1237.398438 850.300781 1233.890625 855.128906 1226.683594 C 859.457031 1220.214844 861.140625 1216.621094 860.613281 1214.957031 C 860.066406 1213.238281 858.464844 1213.160156 852.75 1214.578125 C 844.292969 1216.679688 841.25 1218.242188 836.625 1222.875 C 832.589844 1226.917969 831.898438 1228.082031 829.945312 1234.128906 C 826.085938 1246.058594 825.597656 1246.898438 821.890625 1247.851562 C 818.117188 1248.824219 807.175781 1250.25 803.507812 1250.25 C 802.128906 1250.25 801 1249.925781 801 1249.53125 C 801 1249.136719 803.339844 1247.066406 806.199219 1244.933594 C 811.28125 1241.140625 813.699219 1237.742188 812.589844 1235.945312 C 811.886719 1234.804688 803.664062 1235.457031 798.308594 1237.078125 C 793.554688 1238.519531 785.332031 1244.65625 782.496094 1248.882812 C 780.945312 1251.191406 779.671875 1252.207031 777.863281 1252.578125 C 773.566406 1253.457031 757.679688 1253.398438 757.125 1252.5 C 756.65625 1251.738281 759.132812 1248.527344 765.382812 1241.8125 C 766.992188 1240.085938 768.6875 1239 769.785156 1239 C 774.640625 1239 773.242188 1234.667969 767.867188 1233.050781 C 762.117188 1231.316406 760.441406 1230.300781 757.238281 1226.59375 L 754.746094 1223.707031 L 752.988281 1225.730469 C 750.800781 1228.242188 749.261719 1228.28125 747 1225.875 C 744.5625 1223.28125 743.015625 1223.523438 740.816406 1226.84375 C 739.332031 1229.089844 737.828125 1230.125 733.679688 1231.753906 C 730.789062 1232.886719 727.800781 1234.503906 727.035156 1235.347656 C 725.679688 1236.84375 725.683594 1236.914062 727.089844 1237.941406 C 727.886719 1238.523438 729.121094 1239 729.832031 1239 C 730.542969 1239 733.515625 1241.59375 736.4375 1244.765625 C 741.289062 1250.03125 742.691406 1252.605469 741.1875 1253.496094 C 740.878906 1253.679688 736.183594 1253.554688 730.757812 1253.21875 C 720.835938 1252.609375 716.90625 1251.535156 716.007812 1249.203125 C 715.777344 1248.59375 713.015625 1246.070312 709.875 1243.597656 C 703.386719 1238.480469 696.71875 1235.824219 690.039062 1235.703125 L 685.875 1235.625 L 686.019531 1237.875 C 686.128906 1239.601562 687.339844 1241.214844 691.21875 1244.796875 C 694 1247.371094 696.070312 1249.679688 695.816406 1249.933594 C 695.316406 1250.433594 683.816406 1249.171875 677.453125 1247.921875 C 673.4375 1247.128906 670.503906 1244.667969 670.496094 1242.085938 C 670.492188 1240.039062 666.203125 1229.253906 664.171875 1226.1875 C 660.941406 1221.304688 655.351562 1217.480469 648.304688 1215.332031 C 640.71875 1213.019531 637.984375 1213.105469 637.621094 1215.675781 C 637.480469 1216.664062 637.808594 1218.351562 638.351562 1219.425781 C 640.703125 1224.074219 646.683594 1232.3125 648.933594 1233.992188 C 651.785156 1236.128906 658.519531 1239.75 659.632812 1239.75 C 660.84375 1239.75 666 1243.46875 666 1244.339844 C 666 1245.882812 650.390625 1243.875 642.375 1241.308594 C 639.902344 1240.511719 635.890625 1239.246094 633.46875 1238.496094 C 624.613281 1235.742188 622.910156 1233.925781 616.472656 1220.332031 C 613.808594 1214.707031 606.878906 1207.605469 601.597656 1205.082031 C 593.523438 1201.21875 594.125 1201.367188 593.226562 1203.046875 C 592.316406 1204.746094 593.472656 1209.027344 596.808594 1216.3125 C 598.371094 1219.730469 599.742188 1221.148438 606.097656 1225.910156 C 610.199219 1228.984375 613.792969 1231.511719 614.089844 1231.523438 C 615.039062 1231.570312 618 1234.335938 618 1235.183594 C 618 1236.203125 615.539062 1236.203125 611.625 1235.183594 C 606.082031 1233.738281 603.390625 1233.070312 601.125 1232.582031 C 599.886719 1232.3125 597.503906 1231.453125 595.824219 1230.671875 C 594.148438 1229.890625 592.292969 1229.246094 591.699219 1229.242188 C 591.109375 1229.238281 588.910156 1228.25 586.8125 1227.046875 C 583.011719 1224.867188 582.988281 1224.832031 580.503906 1217.117188 C 577.089844 1206.507812 575.894531 1203.898438 572.703125 1200.085938 C 567.96875 1194.429688 562.277344 1190.632812 554.550781 1187.972656 C 549.335938 1186.179688 548.589844 1186.933594 549.6875 1192.875 C 551.359375 1201.925781 557.402344 1209.785156 566.042969 1214.144531 C 570.550781 1216.421875 577.5 1222.328125 577.5 1223.886719 C 577.5 1224.933594 575.707031 1225.007812 573.925781 1224.039062 C 573.210938 1223.648438 570.347656 1222.609375 567.5625 1221.730469 C 564.777344 1220.847656 562.5 1219.890625 562.5 1219.601562 C 562.5 1219.3125 560.730469 1218.707031 558.5625 1218.257812 C 554.671875 1217.457031 548.804688 1215.152344 539.179688 1210.644531 C 534.789062 1208.589844 534.097656 1207.96875 533.015625 1205.101562 C 532.34375 1203.328125 531.457031 1198.242188 531.042969 1193.804688 C 530.089844 1183.625 528.226562 1179.453125 521.824219 1173.15625 C 513.996094 1165.457031 512.929688 1164.972656 511.253906 1168.3125 C 509.667969 1171.464844 511.214844 1181.246094 514.070312 1186.125 C 516.566406 1190.386719 522.125 1197.261719 525.1875 1199.875 C 526.363281 1200.875 527.25 1202.398438 527.25 1203.410156 C 527.25 1205.136719 527.179688 1205.15625 524.4375 1204.179688 C 521.375 1203.085938 508.816406 1196.585938 507 1195.152344 C 506.382812 1194.664062 503.300781 1192.6875 500.15625 1190.761719 C 494.089844 1187.046875 490.5 1183.195312 490.5 1180.40625 C 490.5 1177.585938 488.917969 1169.765625 487.859375 1167.375 C 487.316406 1166.136719 485.8125 1161.707031 484.523438 1157.53125 C 483.238281 1153.355469 481.15625 1148.292969 479.898438 1146.28125 C 477.214844 1141.992188 471.09375 1135.5 469.734375 1135.5 C 468.269531 1135.5 466.765625 1139.105469 465.785156 1144.980469 C 464.335938 1153.671875 466.851562 1159.613281 475.125 1167.027344 C 480.222656 1171.597656 485.25 1177.410156 485.25 1178.738281 C 485.25 1179.226562 485.453125 1180.15625 485.703125 1180.808594 C 486.433594 1182.707031 483.894531 1183.140625 482.023438 1181.433594 C 481.117188 1180.605469 477.984375 1178.703125 475.0625 1177.203125 C 472.136719 1175.707031 468.933594 1173.613281 467.9375 1172.546875 C 466.941406 1171.480469 465.214844 1170.132812 464.105469 1169.554688 C 459.613281 1167.21875 452.960938 1160.871094 451.046875 1157.097656 L 449.097656 1153.25 L 450.046875 1144.753906 C 451.066406 1135.597656 450.46875 1130.574219 447.691406 1125 C 445.773438 1121.152344 441.09375 1116 439.515625 1116 C 436.757812 1116 435.023438 1125.722656 436.496094 1132.910156 C 437 1135.363281 437.671875 1137.710938 437.984375 1138.125 C 438.300781 1138.539062 439.757812 1141.15625 441.222656 1143.945312 C 446.152344 1153.324219 446.601562 1157.070312 442.480469 1154.460938 C 438.480469 1151.929688 428.230469 1141.40625 427.066406 1138.632812 C 426.421875 1137.105469 425.445312 1130.6875 424.871094 1124.25 C 424.101562 1115.613281 423.277344 1110.886719 421.664062 1105.875 C 418.042969 1094.625 412.949219 1086 409.925781 1086 C 405.882812 1086 403.410156 1099.570312 405.953125 1107.839844 C 407.210938 1111.945312 408.394531 1114.039062 414.957031 1123.785156 C 417.335938 1127.3125 419.734375 1132.203125 420.117188 1134.296875 C 420.761719 1137.835938 417.640625 1135.53125 406.214844 1124.019531 C 393.316406 1111.027344 387.339844 1104.085938 383.15625 1097.25 C 380.816406 1093.421875 380.632812 1092.664062 380.628906 1086.75 C 380.628906 1082.390625 381.039062 1079.363281 381.9375 1077.171875 C 383.351562 1073.722656 383.75 1064.445312 382.578125 1062.175781 C 382.210938 1061.460938 380.796875 1058.570312 379.4375 1055.757812 C 378.078125 1052.941406 376.109375 1049.960938 375.0625 1049.136719 L 373.15625 1047.636719 L 371.847656 1049.253906 C 369.90625 1051.648438 369.007812 1055.6875 369.003906 1062.027344 C 369 1066.789062 369.414062 1068.675781 371.617188 1073.984375 C 374.625 1081.21875 375.808594 1087.507812 374.160156 1087.488281 C 372.589844 1087.46875 371.785156 1086.761719 367.757812 1081.875 C 364.207031 1077.558594 357 1066.574219 357 1065.46875 C 357 1065.175781 356.339844 1064.023438 355.53125 1062.90625 C 353.035156 1059.445312 350.367188 1049.980469 349.039062 1039.835938 C 347.828125 1030.597656 347.613281 1029.886719 344.558594 1025.25 C 340.980469 1019.816406 337.648438 1016.035156 335.367188 1014.8125 C 333.484375 1013.804688 333.496094 1013.804688 332.402344 1014.898438 M 904.5 1032.457031 C 897.160156 1036.675781 885.234375 1042.375 882.75 1042.855469 C 881.308594 1043.132812 879.074219 1043.835938 877.785156 1044.417969 C 874.84375 1045.75 865.597656 1048.058594 857.117188 1049.582031 C 849.367188 1050.972656 823.003906 1051.195312 815.335938 1049.933594 C 807.6875 1048.675781 800.378906 1046.933594 794.730469 1045.023438 C 788.542969 1042.929688 787.496094 1043.304688 785.632812 1048.277344 C 784.027344 1052.558594 775.644531 1066.5 774.675781 1066.5 C 774.304688 1066.5 774 1066.855469 774 1067.292969 C 774 1068.097656 768.738281 1075.941406 764.953125 1080.777344 C 757.5 1090.300781 754.84375 1102.066406 755.585938 1122.234375 L 756.007812 1133.625 L 758.277344 1134.097656 C 765.640625 1135.628906 797.214844 1136.425781 810.375 1135.414062 C 815.324219 1135.03125 821.90625 1134.5625 825 1134.367188 C 834.847656 1133.753906 840.300781 1133.207031 843 1132.554688 C 844.445312 1132.207031 848.664062 1131.53125 852.375 1131.046875 C 859.992188 1130.058594 864.546875 1129.246094 873.75 1127.234375 C 877.257812 1126.46875 882.152344 1125.464844 884.625 1125.007812 C 887.101562 1124.546875 889.800781 1123.898438 890.625 1123.566406 C 891.449219 1123.234375 894.65625 1122.359375 897.75 1121.625 C 903.464844 1120.269531 919.085938 1115.378906 922.5 1113.875 C 923.53125 1113.421875 925.734375 1112.707031 927.398438 1112.292969 C 929.0625 1111.871094 931.027344 1111.085938 931.765625 1110.546875 C 933.003906 1109.644531 933.023438 1109.320312 932.019531 1106.59375 C 931.421875 1104.960938 930.507812 1101.261719 929.988281 1098.375 C 929.472656 1095.488281 928.441406 1091.4375 927.695312 1089.375 C 926.949219 1087.3125 926.109375 1084.273438 925.832031 1082.625 C 925.550781 1080.976562 924.878906 1078.613281 924.335938 1077.375 C 923.792969 1076.136719 922.628906 1072.257812 921.753906 1068.75 C 920.957031 1065.554688 920.15625 1062.359375 919.351562 1059.167969 C 918.910156 1057.40625 918.253906 1055.78125 917.898438 1055.5625 C 917.542969 1055.339844 917.25 1054.464844 917.25 1053.609375 C 917.25 1052.753906 916.421875 1049.484375 915.414062 1046.339844 C 914.402344 1043.195312 913.003906 1038.347656 912.300781 1035.5625 C 910.816406 1029.660156 909.960938 1029.320312 904.5 1032.457031 M 703.976562 1111.3125 C 703.769531 1112.035156 703.492188 1115.492188 703.363281 1119 L 703.125 1125.375 L 705.929688 1126.066406 C 707.476562 1126.449219 708.9375 1126.5625 709.183594 1126.316406 C 710.152344 1125.347656 706.183594 1110 704.964844 1110 C 704.628906 1110 704.183594 1110.589844 703.976562 1111.3125 M 739.308594 1235.691406 C 739 1236 738.75 1236.65625 738.75 1237.148438 C 738.75 1238.101562 748.882812 1248.75 749.785156 1248.75 C 750.390625 1248.75 756.242188 1242.683594 758.769531 1239.433594 C 761.734375 1235.625 757.90625 1233.5 754.535156 1237.085938 C 751.832031 1239.964844 748.773438 1240.292969 746.339844 1237.960938 C 744.269531 1235.976562 740.300781 1234.695312 739.308594 1235.691406 " fill-opacity="1" fill-rule="evenodd"/></svg>