<svg xmlns="http://www.w3.org/2000/svg"
    xmlns:xlink="http://www.w3.org/1999/xlink" width="2000" zoomAndPan="magnify" viewBox="0 0 1500 1499.999933" height="2000" preserveAspectRatio="xMidYMid meet" version="1.0">
    <path fill="#000000" d="M 622.539062 184.578125 C 619.074219 185.960938 618.753906 186.574219 619.863281 189.714844 C 620.417969 191.289062 621.414062 198.101562 622.070312 204.851562 C 622.730469 211.601562 623.414062 218.003906 623.59375 219.082031 C 623.914062 220.996094 623.722656 221.089844 614.398438 223.675781 C 609.160156 225.128906 604.8125 226.265625 604.734375 226.207031 C 604.65625 226.144531 603.902344 219.761719 603.054688 212.027344 C 602.152344 203.746094 601.046875 197.050781 600.371094 195.742188 C 598.722656 192.554688 596.222656 192.207031 588.757812 194.132812 C 572.757812 198.261719 564.75 205.160156 564.75 214.8125 C 564.75 223.800781 571.453125 228.582031 579.234375 225.140625 C 582.867188 223.53125 584.484375 221.417969 584.109375 218.773438 C 583.910156 217.375 583.472656 217.160156 581.203125 217.359375 C 578.941406 217.554688 578.394531 217.289062 577.640625 215.632812 C 576.292969 212.679688 576.566406 209.746094 578.4375 206.992188 C 580.449219 204.039062 583.136719 201.992188 585.863281 201.347656 C 588.40625 200.742188 588.09375 199.015625 591.378906 231.75 C 594.300781 260.882812 594.953125 265.152344 596.765625 267.15625 C 598.121094 268.65625 601.285156 268.875 605.25 267.742188 C 609.871094 266.425781 609.992188 266.214844 608.738281 261.671875 C 607.3125 256.503906 604.929688 233.242188 605.753906 232.53125 C 606.375 231.992188 622.582031 227.25 623.800781 227.25 C 624.160156 227.25 624.855469 230.90625 625.351562 235.375 C 626.929688 249.5625 629.808594 255.484375 636.03125 257.347656 C 641.703125 259.046875 650.398438 254.488281 653.710938 248.085938 L 654.804688 245.964844 L 657.214844 247.789062 C 658.539062 248.792969 661.460938 250.210938 663.703125 250.941406 C 672.007812 253.636719 684.445312 250.003906 691.945312 242.691406 L 695.855469 238.875 L 697.476562 241.375 C 702.578125 249.253906 715.738281 247.851562 722.726562 238.691406 L 725.128906 235.539062 L 727.097656 238.894531 C 729.609375 243.179688 733.835938 245.457031 739.191406 245.410156 C 744.175781 245.363281 748.171875 243.320312 752.269531 238.71875 C 755.132812 235.503906 760.5 225.609375 760.5 223.550781 C 760.5 222.574219 760.144531 222.542969 764.523438 223.875 C 766.53125 224.484375 768.519531 224.769531 768.9375 224.507812 C 769.441406 224.199219 769.53125 225.179688 769.203125 227.371094 C 768.929688 229.203125 769.085938 232.484375 769.550781 234.660156 C 772.285156 247.40625 787.632812 250.144531 796.445312 239.453125 L 798.75 236.65625 L 798.75 238.96875 C 798.75 242.011719 801.515625 246.042969 804.765625 247.734375 C 807.863281 249.347656 814.433594 249.101562 818.046875 247.230469 C 820.21875 246.109375 820.359375 246.125 820.726562 247.53125 C 821.183594 249.277344 825.445312 251.238281 829.277344 251.464844 C 831.957031 251.625 831.980469 251.597656 832.902344 247.578125 C 835.097656 238.03125 845.296875 222.820312 852.628906 218.160156 C 856.820312 215.496094 860.488281 215.425781 860.855469 217.996094 C 860.984375 218.890625 859.042969 224.859375 856.542969 231.261719 C 851.414062 244.410156 850.8125 248.777344 853.527344 253.171875 C 855.449219 256.277344 860.453125 258.753906 864.800781 258.742188 C 871.058594 258.730469 880.5 252.621094 881.710938 247.804688 C 882.539062 244.503906 880.988281 244.226562 877.835938 247.113281 C 872.003906 252.457031 865.5 252.054688 865.5 246.351562 C 865.5 244.914062 867.375 239.097656 869.667969 233.429688 C 876.109375 217.515625 875.941406 212.671875 868.832031 209.230469 C 866.128906 207.921875 864.585938 207.648438 861.746094 207.984375 C 857.753906 208.457031 851.972656 211.109375 848.4375 214.082031 C 847.183594 215.136719 845.984375 216 845.773438 216 C 845.5625 216 845.914062 214.359375 846.550781 212.359375 C 847.191406 210.355469 847.503906 207.863281 847.242188 206.824219 C 846.679688 204.582031 842.859375 202.539062 838.761719 202.292969 C 836.230469 202.140625 835.882812 202.347656 835.273438 204.375 C 834.898438 205.613281 831.851562 213.671875 828.5 222.28125 C 822.195312 238.496094 821.628906 239.382812 816.984375 240.351562 C 814.15625 240.9375 811.5 238.835938 811.5 236.007812 C 811.5 233.722656 820.351562 203.097656 821.28125 202.167969 C 822.535156 200.914062 822.074219 200.339844 819.1875 199.539062 C 814.921875 198.355469 812.722656 198.578125 809.921875 200.488281 L 807.375 202.226562 L 804.527344 199.957031 C 802.1875 198.097656 800.824219 197.636719 796.90625 197.386719 C 786.152344 196.703125 776.828125 203.359375 772.0625 215.121094 C 770.582031 218.773438 770.03125 219.40625 768.175781 219.601562 C 766.890625 219.734375 765.304688 219.253906 764.28125 218.425781 C 762.585938 217.050781 762.566406 216.886719 763.339844 209.949219 C 764.289062 201.488281 763.921875 198.660156 761.609375 196.484375 C 759.449219 194.453125 755.019531 194.296875 752.941406 196.175781 C 749.707031 199.105469 749.925781 206.945312 753.441406 213.882812 C 755.171875 217.296875 755.273438 217.976562 754.542969 221.378906 C 752.539062 230.714844 748.441406 236.25 743.535156 236.25 C 737.175781 236.25 735.488281 230.035156 737.523438 214.125 C 739.234375 200.738281 739.167969 198.296875 737.0625 196.976562 C 734.71875 195.507812 730.550781 194.898438 727.875 195.636719 C 725.960938 196.164062 725.652344 196.582031 725.820312 198.441406 C 725.929688 199.640625 725.382812 206.53125 724.609375 213.75 C 722.691406 231.617188 720.066406 237 713.265625 237 C 707.269531 237 705.589844 230.621094 707.515625 215.152344 C 709.140625 202.078125 709.109375 199.859375 707.25 198 C 706.117188 196.867188 704.75 196.5 701.6875 196.5 C 696.144531 196.5 695.226562 196.941406 695.710938 199.378906 C 695.929688 200.476562 695.558594 206.101562 694.886719 211.875 C 694.214844 217.648438 693.738281 224.875 693.828125 227.929688 C 693.980469 233.277344 693.894531 233.578125 691.515625 236.074219 C 687.933594 239.84375 681.640625 242.464844 676.125 242.488281 C 670.859375 242.511719 667.640625 241.089844 665 237.5625 C 661.359375 232.699219 661.488281 232.445312 669.429688 228.804688 C 681.71875 223.164062 687 217.667969 687 210.507812 C 687 202.460938 678.265625 198.664062 667.363281 201.96875 C 659.742188 204.28125 652.4375 211.5 649.960938 219.171875 C 648.402344 223.996094 648.414062 232.328125 649.984375 237.921875 L 651.214844 242.316406 L 649.09375 244.535156 C 646.398438 247.34375 642.585938 247.59375 640.929688 245.0625 C 640.171875 243.90625 638.980469 235.125 637.144531 217.125 C 634.417969 190.417969 633.929688 187.519531 631.75 185.109375 C 630.382812 183.601562 625.667969 183.328125 622.539062 184.578125" fill-opacity="1" fill-rule="evenodd"/>
</svg>